<svg xmlns="http://www.w3.org/2000/svg" xmlns:xlink="http://www.w3.org/1999/xlink" width="600" height="400" viewBox="0 0 2400 1600">
<defs>
  <clipPath id="clip580">
    <rect x="0" y="0" width="2400" height="1600"></rect>
  </clipPath>
</defs>
<path clip-path="url(#clip580)" d="M0 1600 L2400 1600 L2400 0 L0 0  Z" fill="#ffffff" fill-rule="evenodd" fill-opacity="1"></path>
<defs>
  <clipPath id="clip581">
    <rect x="480" y="0" width="1681" height="1600"></rect>
  </clipPath>
</defs>
<path clip-path="url(#clip580)" d="M112.177 1486.45 L2352.76 1486.45 L2352.76 47.2441 L112.177 47.2441  Z" fill="#ffffff" fill-rule="evenodd" fill-opacity="1"></path>
<defs>
  <clipPath id="clip582">
    <rect x="112" y="47" width="2242" height="1440"></rect>
  </clipPath>
</defs>
<polyline clip-path="url(#clip582)" style="stroke:#000000; stroke-linecap:round; stroke-linejoin:round; stroke-width:2; stroke-opacity:0.1; fill:none" points="175.59,1486.45 175.59,47.2441 "></polyline>
<polyline clip-path="url(#clip582)" style="stroke:#000000; stroke-linecap:round; stroke-linejoin:round; stroke-width:2; stroke-opacity:0.1; fill:none" points="704.028,1486.45 704.028,47.2441 "></polyline>
<polyline clip-path="url(#clip582)" style="stroke:#000000; stroke-linecap:round; stroke-linejoin:round; stroke-width:2; stroke-opacity:0.1; fill:none" points="1232.47,1486.45 1232.47,47.2441 "></polyline>
<polyline clip-path="url(#clip582)" style="stroke:#000000; stroke-linecap:round; stroke-linejoin:round; stroke-width:2; stroke-opacity:0.1; fill:none" points="1760.9,1486.45 1760.9,47.2441 "></polyline>
<polyline clip-path="url(#clip582)" style="stroke:#000000; stroke-linecap:round; stroke-linejoin:round; stroke-width:2; stroke-opacity:0.1; fill:none" points="2289.34,1486.45 2289.34,47.2441 "></polyline>
<polyline clip-path="url(#clip580)" style="stroke:#000000; stroke-linecap:round; stroke-linejoin:round; stroke-width:4; stroke-opacity:1; fill:none" points="112.177,1486.45 2352.76,1486.45 "></polyline>
<polyline clip-path="url(#clip580)" style="stroke:#000000; stroke-linecap:round; stroke-linejoin:round; stroke-width:4; stroke-opacity:1; fill:none" points="175.59,1486.45 175.59,1467.55 "></polyline>
<polyline clip-path="url(#clip580)" style="stroke:#000000; stroke-linecap:round; stroke-linejoin:round; stroke-width:4; stroke-opacity:1; fill:none" points="704.028,1486.45 704.028,1467.55 "></polyline>
<polyline clip-path="url(#clip580)" style="stroke:#000000; stroke-linecap:round; stroke-linejoin:round; stroke-width:4; stroke-opacity:1; fill:none" points="1232.47,1486.45 1232.47,1467.55 "></polyline>
<polyline clip-path="url(#clip580)" style="stroke:#000000; stroke-linecap:round; stroke-linejoin:round; stroke-width:4; stroke-opacity:1; fill:none" points="1760.9,1486.45 1760.9,1467.55 "></polyline>
<polyline clip-path="url(#clip580)" style="stroke:#000000; stroke-linecap:round; stroke-linejoin:round; stroke-width:4; stroke-opacity:1; fill:none" points="2289.34,1486.45 2289.34,1467.55 "></polyline>
<path clip-path="url(#clip580)" d="M145.532 1532.02 L175.208 1532.02 L175.208 1535.95 L145.532 1535.95 L145.532 1532.02 Z" fill="#000000" fill-rule="evenodd" fill-opacity="1"></path><path clip-path="url(#clip580)" d="M189.328 1544.91 L205.647 1544.91 L205.647 1548.85 L183.703 1548.85 L183.703 1544.91 Q186.365 1542.16 190.948 1537.53 Q195.555 1532.88 196.736 1531.53 Q198.981 1529.01 199.86 1527.27 Q200.763 1525.51 200.763 1523.82 Q200.763 1521.07 198.819 1519.33 Q196.898 1517.6 193.796 1517.6 Q191.597 1517.6 189.143 1518.36 Q186.712 1519.13 183.935 1520.68 L183.935 1515.95 Q186.759 1514.82 189.212 1514.24 Q191.666 1513.66 193.703 1513.66 Q199.073 1513.66 202.268 1516.35 Q205.462 1519.03 205.462 1523.52 Q205.462 1525.65 204.652 1527.57 Q203.865 1529.47 201.759 1532.07 Q201.18 1532.74 198.078 1535.95 Q194.976 1539.15 189.328 1544.91 Z" fill="#000000" fill-rule="evenodd" fill-opacity="1"></path><path clip-path="url(#clip580)" d="M673.785 1532.02 L703.461 1532.02 L703.461 1535.95 L673.785 1535.95 L673.785 1532.02 Z" fill="#000000" fill-rule="evenodd" fill-opacity="1"></path><path clip-path="url(#clip580)" d="M714.364 1544.91 L722.003 1544.91 L722.003 1518.55 L713.692 1520.21 L713.692 1515.95 L721.956 1514.29 L726.632 1514.29 L726.632 1544.91 L734.271 1544.91 L734.271 1548.85 L714.364 1548.85 L714.364 1544.91 Z" fill="#000000" fill-rule="evenodd" fill-opacity="1"></path><path clip-path="url(#clip580)" d="M1232.47 1517.37 Q1228.86 1517.37 1227.03 1520.93 Q1225.22 1524.47 1225.22 1531.6 Q1225.22 1538.71 1227.03 1542.27 Q1228.86 1545.82 1232.47 1545.82 Q1236.1 1545.82 1237.91 1542.27 Q1239.74 1538.71 1239.74 1531.6 Q1239.74 1524.47 1237.91 1520.93 Q1236.1 1517.37 1232.47 1517.37 M1232.47 1513.66 Q1238.28 1513.66 1241.33 1518.27 Q1244.41 1522.85 1244.41 1531.6 Q1244.41 1540.33 1241.33 1544.94 Q1238.28 1549.52 1232.47 1549.52 Q1226.66 1549.52 1223.58 1544.94 Q1220.52 1540.33 1220.52 1531.6 Q1220.52 1522.85 1223.58 1518.27 Q1226.66 1513.66 1232.47 1513.66 Z" fill="#000000" fill-rule="evenodd" fill-opacity="1"></path><path clip-path="url(#clip580)" d="M1751.29 1544.91 L1758.93 1544.91 L1758.93 1518.55 L1750.62 1520.21 L1750.62 1515.95 L1758.88 1514.29 L1763.56 1514.29 L1763.56 1544.91 L1771.19 1544.91 L1771.19 1548.85 L1751.29 1548.85 L1751.29 1544.91 Z" fill="#000000" fill-rule="evenodd" fill-opacity="1"></path><path clip-path="url(#clip580)" d="M2284 1544.91 L2300.32 1544.91 L2300.32 1548.85 L2278.37 1548.85 L2278.37 1544.91 Q2281.03 1542.16 2285.62 1537.53 Q2290.22 1532.88 2291.4 1531.53 Q2293.65 1529.01 2294.53 1527.27 Q2295.43 1525.51 2295.43 1523.82 Q2295.43 1521.07 2293.49 1519.33 Q2291.57 1517.6 2288.46 1517.6 Q2286.26 1517.6 2283.81 1518.36 Q2281.38 1519.13 2278.6 1520.68 L2278.6 1515.95 Q2281.43 1514.82 2283.88 1514.24 Q2286.33 1513.66 2288.37 1513.66 Q2293.74 1513.66 2296.94 1516.35 Q2300.13 1519.03 2300.13 1523.52 Q2300.13 1525.65 2299.32 1527.57 Q2298.53 1529.47 2296.43 1532.07 Q2295.85 1532.74 2292.75 1535.95 Q2289.64 1539.15 2284 1544.91 Z" fill="#000000" fill-rule="evenodd" fill-opacity="1"></path><polyline clip-path="url(#clip582)" style="stroke:#000000; stroke-linecap:round; stroke-linejoin:round; stroke-width:2; stroke-opacity:0.1; fill:none" points="112.177,1445.72 2352.76,1445.72 "></polyline>
<polyline clip-path="url(#clip582)" style="stroke:#000000; stroke-linecap:round; stroke-linejoin:round; stroke-width:2; stroke-opacity:0.1; fill:none" points="112.177,1106.28 2352.76,1106.28 "></polyline>
<polyline clip-path="url(#clip582)" style="stroke:#000000; stroke-linecap:round; stroke-linejoin:round; stroke-width:2; stroke-opacity:0.1; fill:none" points="112.177,766.847 2352.76,766.847 "></polyline>
<polyline clip-path="url(#clip582)" style="stroke:#000000; stroke-linecap:round; stroke-linejoin:round; stroke-width:2; stroke-opacity:0.1; fill:none" points="112.177,427.411 2352.76,427.411 "></polyline>
<polyline clip-path="url(#clip582)" style="stroke:#000000; stroke-linecap:round; stroke-linejoin:round; stroke-width:2; stroke-opacity:0.1; fill:none" points="112.177,87.9763 2352.76,87.9763 "></polyline>
<polyline clip-path="url(#clip580)" style="stroke:#000000; stroke-linecap:round; stroke-linejoin:round; stroke-width:4; stroke-opacity:1; fill:none" points="112.177,1486.45 112.177,47.2441 "></polyline>
<polyline clip-path="url(#clip580)" style="stroke:#000000; stroke-linecap:round; stroke-linejoin:round; stroke-width:4; stroke-opacity:1; fill:none" points="112.177,1445.72 131.075,1445.72 "></polyline>
<polyline clip-path="url(#clip580)" style="stroke:#000000; stroke-linecap:round; stroke-linejoin:round; stroke-width:4; stroke-opacity:1; fill:none" points="112.177,1106.28 131.075,1106.28 "></polyline>
<polyline clip-path="url(#clip580)" style="stroke:#000000; stroke-linecap:round; stroke-linejoin:round; stroke-width:4; stroke-opacity:1; fill:none" points="112.177,766.847 131.075,766.847 "></polyline>
<polyline clip-path="url(#clip580)" style="stroke:#000000; stroke-linecap:round; stroke-linejoin:round; stroke-width:4; stroke-opacity:1; fill:none" points="112.177,427.411 131.075,427.411 "></polyline>
<polyline clip-path="url(#clip580)" style="stroke:#000000; stroke-linecap:round; stroke-linejoin:round; stroke-width:4; stroke-opacity:1; fill:none" points="112.177,87.9763 131.075,87.9763 "></polyline>
<path clip-path="url(#clip580)" d="M64.2328 1431.52 Q60.6217 1431.52 58.793 1435.08 Q56.9875 1438.62 56.9875 1445.75 Q56.9875 1452.86 58.793 1456.42 Q60.6217 1459.96 64.2328 1459.96 Q67.867 1459.96 69.6726 1456.42 Q71.5013 1452.86 71.5013 1445.75 Q71.5013 1438.62 69.6726 1435.08 Q67.867 1431.52 64.2328 1431.52 M64.2328 1427.81 Q70.0429 1427.81 73.0985 1432.42 Q76.1772 1437 76.1772 1445.75 Q76.1772 1454.48 73.0985 1459.09 Q70.0429 1463.67 64.2328 1463.67 Q58.4226 1463.67 55.344 1459.09 Q52.2884 1454.48 52.2884 1445.75 Q52.2884 1437 55.344 1432.42 Q58.4226 1427.81 64.2328 1427.81 Z" fill="#000000" fill-rule="evenodd" fill-opacity="1"></path><path clip-path="url(#clip580)" d="M56.2699 1119.63 L63.9087 1119.63 L63.9087 1093.26 L55.5986 1094.93 L55.5986 1090.67 L63.8624 1089 L68.5383 1089 L68.5383 1119.63 L76.1772 1119.63 L76.1772 1123.56 L56.2699 1123.56 L56.2699 1119.63 Z" fill="#000000" fill-rule="evenodd" fill-opacity="1"></path><path clip-path="url(#clip580)" d="M59.8578 780.192 L76.1772 780.192 L76.1772 784.127 L54.2328 784.127 L54.2328 780.192 Q56.8949 777.437 61.4782 772.807 Q66.0846 768.155 67.2652 766.812 Q69.5105 764.289 70.3902 762.553 Q71.2929 760.793 71.2929 759.104 Q71.2929 756.349 69.3485 754.613 Q67.4272 752.877 64.3254 752.877 Q62.1263 752.877 59.6726 753.641 Q57.2421 754.405 54.4643 755.956 L54.4643 751.233 Q57.2884 750.099 59.7421 749.52 Q62.1958 748.942 64.2328 748.942 Q69.6031 748.942 72.7976 751.627 Q75.992 754.312 75.992 758.803 Q75.992 760.932 75.1818 762.854 Q74.3948 764.752 72.2883 767.344 Q71.7096 768.016 68.6078 771.233 Q65.5059 774.428 59.8578 780.192 Z" fill="#000000" fill-rule="evenodd" fill-opacity="1"></path><path clip-path="url(#clip580)" d="M69.0476 426.057 Q72.404 426.775 74.279 429.043 Q76.1772 431.312 76.1772 434.645 Q76.1772 439.761 72.6587 442.562 Q69.1402 445.363 62.6587 445.363 Q60.4828 445.363 58.168 444.923 Q55.8764 444.506 53.4227 443.65 L53.4227 439.136 Q55.3671 440.27 57.6819 440.849 Q59.9967 441.428 62.5198 441.428 Q66.918 441.428 69.2096 439.691 Q71.5244 437.955 71.5244 434.645 Q71.5244 431.59 69.3717 429.877 Q67.242 428.141 63.4226 428.141 L59.3949 428.141 L59.3949 424.298 L63.6078 424.298 Q67.0569 424.298 68.8855 422.932 Q70.7142 421.543 70.7142 418.951 Q70.7142 416.289 68.8161 414.877 Q66.9411 413.442 63.4226 413.442 Q61.5013 413.442 59.3023 413.858 Q57.1032 414.275 54.4643 415.155 L54.4643 410.988 Q57.1264 410.247 59.4412 409.877 Q61.7791 409.506 63.8393 409.506 Q69.1633 409.506 72.2652 411.937 Q75.367 414.344 75.367 418.465 Q75.367 421.335 73.7235 423.326 Q72.08 425.293 69.0476 426.057 Z" fill="#000000" fill-rule="evenodd" fill-opacity="1"></path><path clip-path="url(#clip580)" d="M66.5939 74.7703 L54.7884 93.2193 L66.5939 93.2193 L66.5939 74.7703 M65.367 70.6963 L71.2466 70.6963 L71.2466 93.2193 L76.1772 93.2193 L76.1772 97.1082 L71.2466 97.1082 L71.2466 105.256 L66.5939 105.256 L66.5939 97.1082 L50.9921 97.1082 L50.9921 92.5943 L65.367 70.6963 Z" fill="#000000" fill-rule="evenodd" fill-opacity="1"></path><polyline clip-path="url(#clip582)" style="stroke:#009af9; stroke-linecap:round; stroke-linejoin:round; stroke-width:4; stroke-opacity:1; fill:none" points="175.59,87.9763 177.706,93.4072 179.822,98.8273 181.937,104.236 184.053,109.635 186.169,115.022 188.285,120.399 190.401,125.764 192.517,131.119 194.633,136.463 196.748,141.796 198.864,147.118 200.98,152.429 203.096,157.73 205.212,163.019 207.328,168.298 209.444,173.566 211.56,178.822 213.675,184.068 215.791,189.303 217.907,194.528 220.023,199.741 222.139,204.943 224.255,210.135 226.371,215.315 228.487,220.485 230.602,225.644 232.718,230.792 234.834,235.929 236.95,241.055 239.066,246.171 241.182,251.275 243.298,256.369 245.413,261.451 247.529,266.523 249.645,271.584 251.761,276.634 253.877,281.673 255.993,286.701 258.109,291.719 260.225,296.725 262.34,301.721 264.456,306.706 266.572,311.679 268.688,316.642 270.804,321.595 272.92,326.536 275.036,331.466 277.152,336.385 279.267,341.294 281.383,346.192 283.499,351.078 285.615,355.954 287.731,360.819 289.847,365.673 291.963,370.517 294.078,375.349 296.194,380.171 298.31,384.981 300.426,389.781 302.542,394.57 304.658,399.348 306.774,404.115 308.89,408.871 311.005,413.616 313.121,418.35 315.237,423.074 317.353,427.787 319.469,432.488 321.585,437.179 323.701,441.859 325.817,446.528 327.932,451.187 330.048,455.834 332.164,460.47 334.28,465.096 336.396,469.711 338.512,474.314 340.628,478.907 342.743,483.489 344.859,488.06 346.975,492.621 349.091,497.17 351.207,501.709 353.323,506.236 355.439,510.753 357.555,515.259 359.67,519.754 361.786,524.238 363.902,528.711 366.018,533.173 368.134,537.625 370.25,542.065 372.366,546.495 374.482,550.914 376.597,555.322 378.713,559.719 380.829,564.105 382.945,568.48 385.061,572.844 387.177,577.198 389.293,581.54 391.408,585.872 393.524,590.193 395.64,594.503 397.756,598.802 399.872,603.09 401.988,607.367 404.104,611.634 406.22,615.889 408.335,620.134 410.451,624.368 412.567,628.591 414.683,632.803 416.799,637.004 418.915,641.194 421.031,645.373 423.147,649.542 425.262,653.699 427.378,657.846 429.494,661.982 431.61,666.107 433.726,670.221 435.842,674.324 437.958,678.416 440.073,682.497 442.189,686.568 444.305,690.628 446.421,694.676 448.537,698.714 450.653,702.741 452.769,706.757 454.885,710.762 457,714.757 459.116,718.74 461.232,722.713 463.348,726.674 465.464,730.625 467.58,734.565 469.696,738.494 471.811,742.412 473.927,746.319 476.043,750.216 478.159,754.101 480.275,757.976 482.391,761.839 484.507,765.692 486.623,769.534 488.738,773.365 490.854,777.185 492.97,780.995 495.086,784.793 497.202,788.581 499.318,792.357 501.434,796.123 503.55,799.878 505.665,803.622 507.781,807.355 509.897,811.077 512.013,814.789 514.129,818.489 516.245,822.179 518.361,825.857 520.476,829.525 522.592,833.182 524.708,836.828 526.824,840.463 528.94,844.087 531.056,847.701 533.172,851.303 535.288,854.895 537.403,858.476 539.519,862.046 541.635,865.605 543.751,869.153 545.867,872.69 547.983,876.216 550.099,879.732 552.215,883.236 554.33,886.73 556.446,890.213 558.562,893.684 560.678,897.145 562.794,900.596 564.91,904.035 567.026,907.463 569.141,910.881 571.257,914.287 573.373,917.683 575.489,921.068 577.605,924.442 579.721,927.805 581.837,931.157 583.953,934.498 586.068,937.829 588.184,941.148 590.3,944.457 592.416,947.755 594.532,951.041 596.648,954.317 598.764,957.583 600.88,960.837 602.995,964.08 605.111,967.313 607.227,970.534 609.343,973.745 611.459,976.945 613.575,980.134 615.691,983.312 617.806,986.479 619.922,989.635 622.038,992.78 624.154,995.915 626.27,999.038 628.386,1002.15 630.502,1005.25 632.618,1008.34 634.733,1011.42 636.849,1014.49 638.965,1017.55 641.081,1020.6 643.197,1023.64 645.313,1026.66 647.429,1029.68 649.545,1032.68 651.66,1035.67 653.776,1038.66 655.892,1041.63 658.008,1044.59 660.124,1047.54 662.24,1050.47 664.356,1053.4 666.471,1056.32 668.587,1059.23 670.703,1062.12 672.819,1065 674.935,1067.88 677.051,1070.74 679.167,1073.59 681.283,1076.43 683.398,1079.26 685.514,1082.08 687.63,1084.89 689.746,1087.69 691.862,1090.47 693.978,1093.25 696.094,1096.01 698.21,1098.77 700.325,1101.51 702.441,1104.24 704.557,1106.96 706.673,1109.67 708.789,1112.37 710.905,1115.06 713.021,1117.74 715.136,1120.4 717.252,1123.06 719.368,1125.7 721.484,1128.34 723.6,1130.96 725.716,1133.57 727.832,1136.17 729.948,1138.76 732.063,1141.34 734.179,1143.91 736.295,1146.47 738.411,1149.02 740.527,1151.55 742.643,1154.08 744.759,1156.59 746.875,1159.09 748.99,1161.59 751.106,1164.07 753.222,1166.54 755.338,1169 757.454,1171.45 759.57,1173.88 761.686,1176.31 763.801,1178.73 765.917,1181.13 768.033,1183.53 770.149,1185.91 772.265,1188.28 774.381,1190.65 776.497,1193 778.613,1195.34 780.728,1197.67 782.844,1199.98 784.96,1202.29 787.076,1204.59 789.192,1206.87 791.308,1209.15 793.424,1211.41 795.54,1213.66 797.655,1215.91 799.771,1218.14 801.887,1220.36 804.003,1222.57 806.119,1224.77 808.235,1226.95 810.351,1229.13 812.466,1231.3 814.582,1233.45 816.698,1235.6 818.814,1237.73 820.93,1239.85 823.046,1241.96 825.162,1244.06 827.278,1246.15 829.393,1248.23 831.509,1250.3 833.625,1252.36 835.741,1254.4 837.857,1256.44 839.973,1258.46 842.089,1260.48 844.205,1262.48 846.32,1264.47 848.436,1266.45 850.552,1268.42 852.668,1270.38 854.784,1272.33 856.9,1274.27 859.016,1276.19 861.131,1278.11 863.247,1280.01 865.363,1281.91 867.479,1283.79 869.595,1285.66 871.711,1287.52 873.827,1289.37 875.943,1291.21 878.058,1293.04 880.174,1294.86 882.29,1296.66 884.406,1298.46 886.522,1300.24 888.638,1302.02 890.754,1303.78 892.87,1305.53 894.985,1307.28 897.101,1309.01 899.217,1310.73 901.333,1312.43 903.449,1314.13 905.565,1315.82 907.681,1317.5 909.796,1319.16 911.912,1320.81 914.028,1322.46 916.144,1324.09 918.26,1325.71 920.376,1327.32 922.492,1328.92 924.608,1330.51 926.723,1332.09 928.839,1333.66 930.955,1335.21 933.071,1336.76 935.187,1338.29 937.303,1339.82 939.419,1341.33 941.535,1342.83 943.65,1344.32 945.766,1345.8 947.882,1347.27 949.998,1348.73 952.114,1350.18 954.23,1351.62 956.346,1353.04 958.461,1354.46 960.577,1355.86 962.693,1357.25 964.809,1358.64 966.925,1360.01 969.041,1361.37 971.157,1362.72 973.273,1364.06 975.388,1365.38 977.504,1366.7 979.62,1368.01 981.736,1369.3 983.852,1370.59 985.968,1371.86 988.084,1373.12 990.199,1374.37 992.315,1375.61 994.431,1376.84 996.547,1378.06 998.663,1379.27 1000.78,1380.47 1002.89,1381.65 1005.01,1382.83 1007.13,1383.99 1009.24,1385.15 1011.36,1386.29 1013.47,1387.42 1015.59,1388.54 1017.71,1389.65 1019.82,1390.75 1021.94,1391.84 1024.05,1392.92 1026.17,1393.99 1028.29,1395.04 1030.4,1396.09 1032.52,1397.12 1034.63,1398.14 1036.75,1399.16 1038.86,1400.16 1040.98,1401.15 1043.1,1402.13 1045.21,1403.1 1047.33,1404.05 1049.44,1405 1051.56,1405.94 1053.68,1406.86 1055.79,1407.78 1057.91,1408.68 1060.02,1409.57 1062.14,1410.45 1064.25,1411.32 1066.37,1412.18 1068.49,1413.03 1070.6,1413.87 1072.72,1414.7 1074.83,1415.51 1076.95,1416.32 1079.07,1417.11 1081.18,1417.9 1083.3,1418.67 1085.41,1419.43 1087.53,1420.18 1089.65,1420.92 1091.76,1421.65 1093.88,1422.37 1095.99,1423.08 1098.11,1423.77 1100.22,1424.46 1102.34,1425.13 1104.46,1425.8 1106.57,1426.45 1108.69,1427.09 1110.8,1427.72 1112.92,1428.35 1115.04,1428.95 1117.15,1429.55 1119.27,1430.14 1121.38,1430.72 1123.5,1431.28 1125.62,1431.84 1127.73,1432.38 1129.85,1432.92 1131.96,1433.44 1134.08,1433.95 1136.19,1434.45 1138.31,1434.94 1140.43,1435.42 1142.54,1435.89 1144.66,1436.34 1146.77,1436.79 1148.89,1437.23 1151.01,1437.65 1153.12,1438.06 1155.24,1438.47 1157.35,1438.86 1159.47,1439.24 1161.58,1439.61 1163.7,1439.97 1165.82,1440.32 1167.93,1440.65 1170.05,1440.98 1172.16,1441.3 1174.28,1441.6 1176.4,1441.9 1178.51,1442.18 1180.63,1442.45 1182.74,1442.71 1184.86,1442.96 1186.98,1443.2 1189.09,1443.43 1191.21,1443.65 1193.32,1443.85 1195.44,1444.05 1197.55,1444.24 1199.67,1444.41 1201.79,1444.57 1203.9,1444.73 1206.02,1444.87 1208.13,1445 1210.25,1445.12 1212.37,1445.23 1214.48,1445.32 1216.6,1445.41 1218.71,1445.49 1220.83,1445.55 1222.95,1445.61 1225.06,1445.65 1227.18,1445.68 1229.29,1445.7 1231.41,1445.72 1233.52,1445.72 1235.64,1445.7 1237.76,1445.68 1239.87,1445.65 1241.99,1445.61 1244.1,1445.55 1246.22,1445.49 1248.34,1445.41 1250.45,1445.32 1252.57,1445.23 1254.68,1445.12 1256.8,1445 1258.91,1444.87 1261.03,1444.73 1263.15,1444.57 1265.26,1444.41 1267.38,1444.24 1269.49,1444.05 1271.61,1443.85 1273.73,1443.65 1275.84,1443.43 1277.96,1443.2 1280.07,1442.96 1282.19,1442.71 1284.31,1442.45 1286.42,1442.18 1288.54,1441.9 1290.65,1441.6 1292.77,1441.3 1294.88,1440.98 1297,1440.65 1299.12,1440.32 1301.23,1439.97 1303.35,1439.61 1305.46,1439.24 1307.58,1438.86 1309.7,1438.47 1311.81,1438.06 1313.93,1437.65 1316.04,1437.23 1318.16,1436.79 1320.28,1436.34 1322.39,1435.89 1324.51,1435.42 1326.62,1434.94 1328.74,1434.45 1330.85,1433.95 1332.97,1433.44 1335.09,1432.92 1337.2,1432.38 1339.32,1431.84 1341.43,1431.28 1343.55,1430.72 1345.67,1430.14 1347.78,1429.55 1349.9,1428.95 1352.01,1428.35 1354.13,1427.72 1356.24,1427.09 1358.36,1426.45 1360.48,1425.8 1362.59,1425.13 1364.71,1424.46 1366.82,1423.77 1368.94,1423.08 1371.06,1422.37 1373.17,1421.65 1375.29,1420.92 1377.4,1420.18 1379.52,1419.43 1381.64,1418.67 1383.75,1417.9 1385.87,1417.11 1387.98,1416.32 1390.1,1415.51 1392.21,1414.7 1394.33,1413.87 1396.45,1413.03 1398.56,1412.18 1400.68,1411.32 1402.79,1410.45 1404.91,1409.57 1407.03,1408.68 1409.14,1407.78 1411.26,1406.86 1413.37,1405.94 1415.49,1405 1417.61,1404.05 1419.72,1403.1 1421.84,1402.13 1423.95,1401.15 1426.07,1400.16 1428.18,1399.16 1430.3,1398.14 1432.42,1397.12 1434.53,1396.09 1436.65,1395.04 1438.76,1393.99 1440.88,1392.92 1443,1391.84 1445.11,1390.75 1447.23,1389.65 1449.34,1388.54 1451.46,1387.42 1453.57,1386.29 1455.69,1385.15 1457.81,1383.99 1459.92,1382.83 1462.04,1381.65 1464.15,1380.47 1466.27,1379.27 1468.39,1378.06 1470.5,1376.84 1472.62,1375.61 1474.73,1374.37 1476.85,1373.12 1478.97,1371.86 1481.08,1370.59 1483.2,1369.3 1485.31,1368.01 1487.43,1366.7 1489.54,1365.38 1491.66,1364.06 1493.78,1362.72 1495.89,1361.37 1498.01,1360.01 1500.12,1358.64 1502.24,1357.25 1504.36,1355.86 1506.47,1354.46 1508.59,1353.04 1510.7,1351.62 1512.82,1350.18 1514.94,1348.73 1517.05,1347.27 1519.17,1345.8 1521.28,1344.32 1523.4,1342.83 1525.51,1341.33 1527.63,1339.82 1529.75,1338.29 1531.86,1336.76 1533.98,1335.21 1536.09,1333.66 1538.21,1332.09 1540.33,1330.51 1542.44,1328.92 1544.56,1327.32 1546.67,1325.71 1548.79,1324.09 1550.9,1322.46 1553.02,1320.81 1555.14,1319.16 1557.25,1317.5 1559.37,1315.82 1561.48,1314.13 1563.6,1312.43 1565.72,1310.73 1567.83,1309.01 1569.95,1307.28 1572.06,1305.53 1574.18,1303.78 1576.3,1302.02 1578.41,1300.24 1580.53,1298.46 1582.64,1296.66 1584.76,1294.86 1586.87,1293.04 1588.99,1291.21 1591.11,1289.37 1593.22,1287.52 1595.34,1285.66 1597.45,1283.79 1599.57,1281.91 1601.69,1280.01 1603.8,1278.11 1605.92,1276.19 1608.03,1274.27 1610.15,1272.33 1612.27,1270.38 1614.38,1268.42 1616.5,1266.45 1618.61,1264.47 1620.73,1262.48 1622.84,1260.48 1624.96,1258.46 1627.08,1256.44 1629.19,1254.4 1631.31,1252.36 1633.42,1250.3 1635.54,1248.23 1637.66,1246.15 1639.77,1244.06 1641.89,1241.96 1644,1239.85 1646.12,1237.73 1648.23,1235.6 1650.35,1233.45 1652.47,1231.3 1654.58,1229.13 1656.7,1226.95 1658.81,1224.77 1660.93,1222.57 1663.05,1220.36 1665.16,1218.14 1667.28,1215.91 1669.39,1213.66 1671.51,1211.41 1673.63,1209.15 1675.74,1206.87 1677.86,1204.59 1679.97,1202.29 1682.09,1199.98 1684.2,1197.67 1686.32,1195.34 1688.44,1193 1690.55,1190.65 1692.67,1188.28 1694.78,1185.91 1696.9,1183.53 1699.02,1181.13 1701.13,1178.73 1703.25,1176.31 1705.36,1173.88 1707.48,1171.45 1709.6,1169 1711.71,1166.54 1713.83,1164.07 1715.94,1161.59 1718.06,1159.09 1720.17,1156.59 1722.29,1154.08 1724.41,1151.55 1726.52,1149.02 1728.64,1146.47 1730.75,1143.91 1732.87,1141.34 1734.99,1138.76 1737.1,1136.17 1739.22,1133.57 1741.33,1130.96 1743.45,1128.34 1745.56,1125.7 1747.68,1123.06 1749.8,1120.4 1751.91,1117.74 1754.03,1115.06 1756.14,1112.37 1758.26,1109.67 1760.38,1106.96 1762.49,1104.24 1764.61,1101.51 1766.72,1098.77 1768.84,1096.01 1770.96,1093.25 1773.07,1090.47 1775.19,1087.69 1777.3,1084.89 1779.42,1082.08 1781.53,1079.26 1783.65,1076.43 1785.77,1073.59 1787.88,1070.74 1790,1067.88 1792.11,1065 1794.23,1062.12 1796.35,1059.23 1798.46,1056.32 1800.58,1053.4 1802.69,1050.47 1804.81,1047.54 1806.93,1044.59 1809.04,1041.63 1811.16,1038.66 1813.27,1035.67 1815.39,1032.68 1817.5,1029.68 1819.62,1026.66 1821.74,1023.64 1823.85,1020.6 1825.97,1017.55 1828.08,1014.49 1830.2,1011.42 1832.32,1008.34 1834.43,1005.25 1836.55,1002.15 1838.66,999.038 1840.78,995.915 1842.89,992.78 1845.01,989.635 1847.13,986.479 1849.24,983.312 1851.36,980.134 1853.47,976.945 1855.59,973.745 1857.71,970.534 1859.82,967.313 1861.94,964.08 1864.05,960.837 1866.17,957.583 1868.29,954.317 1870.4,951.041 1872.52,947.755 1874.63,944.457 1876.75,941.148 1878.86,937.829 1880.98,934.498 1883.1,931.157 1885.21,927.805 1887.33,924.442 1889.44,921.068 1891.56,917.683 1893.68,914.287 1895.79,910.881 1897.91,907.463 1900.02,904.035 1902.14,900.596 1904.26,897.145 1906.37,893.684 1908.49,890.213 1910.6,886.73 1912.72,883.236 1914.83,879.732 1916.95,876.216 1919.07,872.69 1921.18,869.153 1923.3,865.605 1925.41,862.046 1927.53,858.476 1929.65,854.895 1931.76,851.303 1933.88,847.701 1935.99,844.087 1938.11,840.463 1940.22,836.828 1942.34,833.182 1944.46,829.525 1946.57,825.857 1948.69,822.179 1950.8,818.489 1952.92,814.789 1955.04,811.077 1957.15,807.355 1959.27,803.622 1961.38,799.878 1963.5,796.123 1965.62,792.357 1967.73,788.581 1969.85,784.793 1971.96,780.995 1974.08,777.185 1976.19,773.365 1978.31,769.534 1980.43,765.692 1982.54,761.839 1984.66,757.976 1986.77,754.101 1988.89,750.216 1991.01,746.319 1993.12,742.412 1995.24,738.494 1997.35,734.565 1999.47,730.625 2001.59,726.674 2003.7,722.713 2005.82,718.74 2007.93,714.757 2010.05,710.762 2012.16,706.757 2014.28,702.741 2016.4,698.714 2018.51,694.676 2020.63,690.628 2022.74,686.568 2024.86,682.497 2026.98,678.416 2029.09,674.324 2031.21,670.221 2033.32,666.107 2035.44,661.982 2037.55,657.846 2039.67,653.699 2041.79,649.542 2043.9,645.373 2046.02,641.194 2048.13,637.004 2050.25,632.803 2052.37,628.591 2054.48,624.368 2056.6,620.134 2058.71,615.889 2060.83,611.634 2062.95,607.367 2065.06,603.09 2067.18,598.802 2069.29,594.503 2071.41,590.193 2073.52,585.872 2075.64,581.54 2077.76,577.198 2079.87,572.844 2081.99,568.48 2084.1,564.105 2086.22,559.719 2088.34,555.322 2090.45,550.914 2092.57,546.495 2094.68,542.065 2096.8,537.625 2098.92,533.173 2101.03,528.711 2103.15,524.238 2105.26,519.754 2107.38,515.259 2109.49,510.753 2111.61,506.236 2113.73,501.709 2115.84,497.17 2117.96,492.621 2120.07,488.06 2122.19,483.489 2124.31,478.907 2126.42,474.314 2128.54,469.711 2130.65,465.096 2132.77,460.47 2134.88,455.834 2137,451.187 2139.12,446.528 2141.23,441.859 2143.35,437.179 2145.46,432.488 2147.58,427.787 2149.7,423.074 2151.81,418.35 2153.93,413.616 2156.04,408.871 2158.16,404.115 2160.28,399.348 2162.39,394.57 2164.51,389.781 2166.62,384.981 2168.74,380.171 2170.85,375.349 2172.97,370.517 2175.09,365.673 2177.2,360.819 2179.32,355.954 2181.43,351.078 2183.55,346.192 2185.67,341.294 2187.78,336.385 2189.9,331.466 2192.01,326.536 2194.13,321.595 2196.25,316.642 2198.36,311.679 2200.48,306.706 2202.59,301.721 2204.71,296.725 2206.82,291.719 2208.94,286.701 2211.06,281.673 2213.17,276.634 2215.29,271.584 2217.4,266.523 2219.52,261.451 2221.64,256.369 2223.75,251.275 2225.87,246.171 2227.98,241.055 2230.1,235.929 2232.21,230.792 2234.33,225.644 2236.45,220.485 2238.56,215.315 2240.68,210.135 2242.79,204.943 2244.91,199.741 2247.03,194.528 2249.14,189.303 2251.26,184.068 2253.37,178.822 2255.49,173.566 2257.61,168.298 2259.72,163.019 2261.84,157.73 2263.95,152.429 2266.07,147.118 2268.18,141.796 2270.3,136.463 2272.42,131.119 2274.53,125.764 2276.65,120.399 2278.76,115.022 2280.88,109.635 2283,104.236 2285.11,98.8273 2287.23,93.4072 2289.34,87.9763 "></polyline>
<path clip-path="url(#clip580)" d="M2001.58 1438.47 L2278.07 1438.47 L2278.07 1334.79 L2001.58 1334.79  Z" fill="#ffffff" fill-rule="evenodd" fill-opacity="1"></path>
<polyline clip-path="url(#clip580)" style="stroke:#000000; stroke-linecap:round; stroke-linejoin:round; stroke-width:4; stroke-opacity:1; fill:none" points="2001.58,1438.47 2278.07,1438.47 2278.07,1334.79 2001.58,1334.79 2001.58,1438.47 "></polyline>
<polyline clip-path="url(#clip580)" style="stroke:#009af9; stroke-linecap:round; stroke-linejoin:round; stroke-width:4; stroke-opacity:1; fill:none" points="2026.48,1386.63 2175.85,1386.63 "></polyline>
<path clip-path="url(#clip580)" d="M2214.59 1406.32 Q2212.78 1410.95 2211.07 1412.36 Q2209.36 1413.78 2206.49 1413.78 L2203.08 1413.78 L2203.08 1410.21 L2205.58 1410.21 Q2207.34 1410.21 2208.31 1409.38 Q2209.29 1408.54 2210.47 1405.44 L2211.23 1403.5 L2200.74 1377.99 L2205.26 1377.99 L2213.36 1398.27 L2221.46 1377.99 L2225.98 1377.99 L2214.59 1406.32 Z" fill="#000000" fill-rule="evenodd" fill-opacity="1"></path><path clip-path="url(#clip580)" d="M2233.27 1399.98 L2240.91 1399.98 L2240.91 1373.61 L2232.6 1375.28 L2232.6 1371.02 L2240.86 1369.35 L2245.54 1369.35 L2245.54 1399.98 L2253.17 1399.98 L2253.17 1403.91 L2233.27 1403.91 L2233.27 1399.98 Z" fill="#000000" fill-rule="evenodd" fill-opacity="1"></path></svg>