<svg xmlns="http://www.w3.org/2000/svg" xmlns:xlink="http://www.w3.org/1999/xlink" width="600" height="400" viewBox="0 0 2400 1600">
<defs>
  <clipPath id="clip620">
    <rect x="0" y="0" width="2400" height="1600"></rect>
  </clipPath>
</defs>
<path clip-path="url(#clip620)" d="M0 1600 L2400 1600 L2400 0 L0 0  Z" fill="#ffffff" fill-rule="evenodd" fill-opacity="1"></path>
<defs>
  <clipPath id="clip621">
    <rect x="480" y="0" width="1681" height="1600"></rect>
  </clipPath>
</defs>
<path clip-path="url(#clip620)" d="M156.598 1486.45 L2352.76 1486.45 L2352.76 47.2441 L156.598 47.2441  Z" fill="#ffffff" fill-rule="evenodd" fill-opacity="1"></path>
<defs>
  <clipPath id="clip622">
    <rect x="156" y="47" width="2197" height="1440"></rect>
  </clipPath>
</defs>
<polyline clip-path="url(#clip622)" style="stroke:#000000; stroke-linecap:round; stroke-linejoin:round; stroke-width:2; stroke-opacity:0.1; fill:none" points="218.754,1486.45 218.754,47.2441 "></polyline>
<polyline clip-path="url(#clip622)" style="stroke:#000000; stroke-linecap:round; stroke-linejoin:round; stroke-width:2; stroke-opacity:0.1; fill:none" points="736.715,1486.45 736.715,47.2441 "></polyline>
<polyline clip-path="url(#clip622)" style="stroke:#000000; stroke-linecap:round; stroke-linejoin:round; stroke-width:2; stroke-opacity:0.1; fill:none" points="1254.68,1486.45 1254.68,47.2441 "></polyline>
<polyline clip-path="url(#clip622)" style="stroke:#000000; stroke-linecap:round; stroke-linejoin:round; stroke-width:2; stroke-opacity:0.1; fill:none" points="1772.64,1486.45 1772.64,47.2441 "></polyline>
<polyline clip-path="url(#clip622)" style="stroke:#000000; stroke-linecap:round; stroke-linejoin:round; stroke-width:2; stroke-opacity:0.1; fill:none" points="2290.6,1486.45 2290.6,47.2441 "></polyline>
<polyline clip-path="url(#clip620)" style="stroke:#000000; stroke-linecap:round; stroke-linejoin:round; stroke-width:4; stroke-opacity:1; fill:none" points="156.598,1486.45 2352.76,1486.45 "></polyline>
<polyline clip-path="url(#clip620)" style="stroke:#000000; stroke-linecap:round; stroke-linejoin:round; stroke-width:4; stroke-opacity:1; fill:none" points="218.754,1486.45 218.754,1467.55 "></polyline>
<polyline clip-path="url(#clip620)" style="stroke:#000000; stroke-linecap:round; stroke-linejoin:round; stroke-width:4; stroke-opacity:1; fill:none" points="736.715,1486.45 736.715,1467.55 "></polyline>
<polyline clip-path="url(#clip620)" style="stroke:#000000; stroke-linecap:round; stroke-linejoin:round; stroke-width:4; stroke-opacity:1; fill:none" points="1254.68,1486.45 1254.68,1467.55 "></polyline>
<polyline clip-path="url(#clip620)" style="stroke:#000000; stroke-linecap:round; stroke-linejoin:round; stroke-width:4; stroke-opacity:1; fill:none" points="1772.64,1486.45 1772.64,1467.55 "></polyline>
<polyline clip-path="url(#clip620)" style="stroke:#000000; stroke-linecap:round; stroke-linejoin:round; stroke-width:4; stroke-opacity:1; fill:none" points="2290.6,1486.45 2290.6,1467.55 "></polyline>
<path clip-path="url(#clip620)" d="M188.696 1532.02 L218.372 1532.02 L218.372 1535.95 L188.696 1535.95 L188.696 1532.02 Z" fill="#000000" fill-rule="evenodd" fill-opacity="1"></path><path clip-path="url(#clip620)" d="M232.492 1544.91 L248.811 1544.91 L248.811 1548.85 L226.867 1548.85 L226.867 1544.91 Q229.529 1542.16 234.112 1537.53 Q238.719 1532.88 239.899 1531.53 Q242.145 1529.01 243.024 1527.27 Q243.927 1525.51 243.927 1523.82 Q243.927 1521.07 241.983 1519.33 Q240.061 1517.6 236.96 1517.6 Q234.76 1517.6 232.307 1518.36 Q229.876 1519.13 227.099 1520.68 L227.099 1515.95 Q229.923 1514.82 232.376 1514.24 Q234.83 1513.66 236.867 1513.66 Q242.237 1513.66 245.432 1516.35 Q248.626 1519.03 248.626 1523.52 Q248.626 1525.65 247.816 1527.57 Q247.029 1529.47 244.922 1532.07 Q244.344 1532.74 241.242 1535.95 Q238.14 1539.15 232.492 1544.91 Z" fill="#000000" fill-rule="evenodd" fill-opacity="1"></path><path clip-path="url(#clip620)" d="M706.472 1532.02 L736.148 1532.02 L736.148 1535.95 L706.472 1535.95 L706.472 1532.02 Z" fill="#000000" fill-rule="evenodd" fill-opacity="1"></path><path clip-path="url(#clip620)" d="M747.051 1544.91 L754.69 1544.91 L754.69 1518.55 L746.38 1520.21 L746.38 1515.95 L754.643 1514.29 L759.319 1514.29 L759.319 1544.91 L766.958 1544.91 L766.958 1548.85 L747.051 1548.85 L747.051 1544.91 Z" fill="#000000" fill-rule="evenodd" fill-opacity="1"></path><path clip-path="url(#clip620)" d="M1254.68 1517.37 Q1251.07 1517.37 1249.24 1520.93 Q1247.43 1524.47 1247.43 1531.6 Q1247.43 1538.71 1249.24 1542.27 Q1251.07 1545.82 1254.68 1545.82 Q1258.31 1545.82 1260.12 1542.27 Q1261.95 1538.71 1261.95 1531.6 Q1261.95 1524.47 1260.12 1520.93 Q1258.31 1517.37 1254.68 1517.37 M1254.68 1513.66 Q1260.49 1513.66 1263.54 1518.27 Q1266.62 1522.85 1266.62 1531.6 Q1266.62 1540.33 1263.54 1544.94 Q1260.49 1549.52 1254.68 1549.52 Q1248.87 1549.52 1245.79 1544.94 Q1242.73 1540.33 1242.73 1531.6 Q1242.73 1522.85 1245.79 1518.27 Q1248.87 1513.66 1254.68 1513.66 Z" fill="#000000" fill-rule="evenodd" fill-opacity="1"></path><path clip-path="url(#clip620)" d="M1763.02 1544.91 L1770.66 1544.91 L1770.66 1518.55 L1762.35 1520.21 L1762.35 1515.95 L1770.61 1514.29 L1775.29 1514.29 L1775.29 1544.91 L1782.93 1544.91 L1782.93 1548.85 L1763.02 1548.85 L1763.02 1544.91 Z" fill="#000000" fill-rule="evenodd" fill-opacity="1"></path><path clip-path="url(#clip620)" d="M2285.25 1544.91 L2301.57 1544.91 L2301.57 1548.85 L2279.63 1548.85 L2279.63 1544.91 Q2282.29 1542.16 2286.87 1537.53 Q2291.48 1532.88 2292.66 1531.53 Q2294.91 1529.01 2295.79 1527.27 Q2296.69 1525.51 2296.69 1523.82 Q2296.69 1521.07 2294.74 1519.33 Q2292.82 1517.6 2289.72 1517.6 Q2287.52 1517.6 2285.07 1518.36 Q2282.64 1519.13 2279.86 1520.68 L2279.86 1515.95 Q2282.68 1514.82 2285.14 1514.24 Q2287.59 1513.66 2289.63 1513.66 Q2295 1513.66 2298.19 1516.35 Q2301.39 1519.03 2301.39 1523.52 Q2301.39 1525.65 2300.58 1527.57 Q2299.79 1529.47 2297.68 1532.07 Q2297.11 1532.74 2294 1535.95 Q2290.9 1539.15 2285.25 1544.91 Z" fill="#000000" fill-rule="evenodd" fill-opacity="1"></path><polyline clip-path="url(#clip622)" style="stroke:#000000; stroke-linecap:round; stroke-linejoin:round; stroke-width:2; stroke-opacity:0.1; fill:none" points="156.598,1344.18 2352.76,1344.18 "></polyline>
<polyline clip-path="url(#clip622)" style="stroke:#000000; stroke-linecap:round; stroke-linejoin:round; stroke-width:2; stroke-opacity:0.1; fill:none" points="156.598,1030.13 2352.76,1030.13 "></polyline>
<polyline clip-path="url(#clip622)" style="stroke:#000000; stroke-linecap:round; stroke-linejoin:round; stroke-width:2; stroke-opacity:0.1; fill:none" points="156.598,716.074 2352.76,716.074 "></polyline>
<polyline clip-path="url(#clip622)" style="stroke:#000000; stroke-linecap:round; stroke-linejoin:round; stroke-width:2; stroke-opacity:0.1; fill:none" points="156.598,402.024 2352.76,402.024 "></polyline>
<polyline clip-path="url(#clip622)" style="stroke:#000000; stroke-linecap:round; stroke-linejoin:round; stroke-width:2; stroke-opacity:0.1; fill:none" points="156.598,87.9731 2352.76,87.9731 "></polyline>
<polyline clip-path="url(#clip620)" style="stroke:#000000; stroke-linecap:round; stroke-linejoin:round; stroke-width:4; stroke-opacity:1; fill:none" points="156.598,1486.45 156.598,47.2441 "></polyline>
<polyline clip-path="url(#clip620)" style="stroke:#000000; stroke-linecap:round; stroke-linejoin:round; stroke-width:4; stroke-opacity:1; fill:none" points="156.598,1344.18 175.496,1344.18 "></polyline>
<polyline clip-path="url(#clip620)" style="stroke:#000000; stroke-linecap:round; stroke-linejoin:round; stroke-width:4; stroke-opacity:1; fill:none" points="156.598,1030.13 175.496,1030.13 "></polyline>
<polyline clip-path="url(#clip620)" style="stroke:#000000; stroke-linecap:round; stroke-linejoin:round; stroke-width:4; stroke-opacity:1; fill:none" points="156.598,716.074 175.496,716.074 "></polyline>
<polyline clip-path="url(#clip620)" style="stroke:#000000; stroke-linecap:round; stroke-linejoin:round; stroke-width:4; stroke-opacity:1; fill:none" points="156.598,402.024 175.496,402.024 "></polyline>
<polyline clip-path="url(#clip620)" style="stroke:#000000; stroke-linecap:round; stroke-linejoin:round; stroke-width:4; stroke-opacity:1; fill:none" points="156.598,87.9731 175.496,87.9731 "></polyline>
<path clip-path="url(#clip620)" d="M65.0198 1329.97 Q61.4087 1329.97 59.58 1333.54 Q57.7745 1337.08 57.7745 1344.21 Q57.7745 1351.32 59.58 1354.88 Q61.4087 1358.42 65.0198 1358.42 Q68.6541 1358.42 70.4596 1354.88 Q72.2883 1351.32 72.2883 1344.21 Q72.2883 1337.08 70.4596 1333.54 Q68.6541 1329.97 65.0198 1329.97 M65.0198 1326.27 Q70.83 1326.27 73.8855 1330.88 Q76.9642 1335.46 76.9642 1344.21 Q76.9642 1352.94 73.8855 1357.54 Q70.83 1362.13 65.0198 1362.13 Q59.2097 1362.13 56.131 1357.54 Q53.0754 1352.94 53.0754 1344.21 Q53.0754 1335.46 56.131 1330.88 Q59.2097 1326.27 65.0198 1326.27 Z" fill="#000000" fill-rule="evenodd" fill-opacity="1"></path><path clip-path="url(#clip620)" d="M85.1818 1355.58 L90.066 1355.58 L90.066 1361.46 L85.1818 1361.46 L85.1818 1355.58 Z" fill="#000000" fill-rule="evenodd" fill-opacity="1"></path><path clip-path="url(#clip620)" d="M104.279 1357.52 L120.598 1357.52 L120.598 1361.46 L98.6539 1361.46 L98.6539 1357.52 Q101.316 1354.77 105.899 1350.14 Q110.506 1345.48 111.686 1344.14 Q113.932 1341.62 114.811 1339.88 Q115.714 1338.12 115.714 1336.43 Q115.714 1333.68 113.77 1331.94 Q111.848 1330.21 108.746 1330.21 Q106.547 1330.21 104.094 1330.97 Q101.663 1331.73 98.8854 1333.28 L98.8854 1328.56 Q101.709 1327.43 104.163 1326.85 Q106.617 1326.27 108.654 1326.27 Q114.024 1326.27 117.219 1328.96 Q120.413 1331.64 120.413 1336.13 Q120.413 1338.26 119.603 1340.18 Q118.816 1342.08 116.709 1344.67 Q116.131 1345.34 113.029 1348.56 Q109.927 1351.76 104.279 1357.52 Z" fill="#000000" fill-rule="evenodd" fill-opacity="1"></path><path clip-path="url(#clip620)" d="M62.9365 1015.92 Q59.3254 1015.92 57.4967 1019.49 Q55.6912 1023.03 55.6912 1030.16 Q55.6912 1037.27 57.4967 1040.83 Q59.3254 1044.37 62.9365 1044.37 Q66.5707 1044.37 68.3763 1040.83 Q70.205 1037.27 70.205 1030.16 Q70.205 1023.03 68.3763 1019.49 Q66.5707 1015.92 62.9365 1015.92 M62.9365 1012.22 Q68.7467 1012.22 71.8022 1016.83 Q74.8809 1021.41 74.8809 1030.16 Q74.8809 1038.89 71.8022 1043.49 Q68.7467 1048.08 62.9365 1048.08 Q57.1264 1048.08 54.0477 1043.49 Q50.9921 1038.89 50.9921 1030.16 Q50.9921 1021.41 54.0477 1016.83 Q57.1264 1012.22 62.9365 1012.22 Z" fill="#000000" fill-rule="evenodd" fill-opacity="1"></path><path clip-path="url(#clip620)" d="M83.0984 1041.53 L87.9827 1041.53 L87.9827 1047.41 L83.0984 1047.41 L83.0984 1041.53 Z" fill="#000000" fill-rule="evenodd" fill-opacity="1"></path><path clip-path="url(#clip620)" d="M111.015 1016.92 L99.2095 1035.37 L111.015 1035.37 L111.015 1016.92 M109.788 1012.85 L115.668 1012.85 L115.668 1035.37 L120.598 1035.37 L120.598 1039.26 L115.668 1039.26 L115.668 1047.41 L111.015 1047.41 L111.015 1039.26 L95.4132 1039.26 L95.4132 1034.74 L109.788 1012.85 Z" fill="#000000" fill-rule="evenodd" fill-opacity="1"></path><path clip-path="url(#clip620)" d="M63.2606 701.873 Q59.6495 701.873 57.8208 705.438 Q56.0152 708.98 56.0152 716.109 Q56.0152 723.216 57.8208 726.78 Q59.6495 730.322 63.2606 730.322 Q66.8948 730.322 68.7004 726.78 Q70.5291 723.216 70.5291 716.109 Q70.5291 708.98 68.7004 705.438 Q66.8948 701.873 63.2606 701.873 M63.2606 698.169 Q69.0707 698.169 72.1263 702.776 Q75.205 707.359 75.205 716.109 Q75.205 724.836 72.1263 729.442 Q69.0707 734.026 63.2606 734.026 Q57.4504 734.026 54.3717 729.442 Q51.3162 724.836 51.3162 716.109 Q51.3162 707.359 54.3717 702.776 Q57.4504 698.169 63.2606 698.169 Z" fill="#000000" fill-rule="evenodd" fill-opacity="1"></path><path clip-path="url(#clip620)" d="M83.4225 727.475 L88.3067 727.475 L88.3067 733.354 L83.4225 733.354 L83.4225 727.475 Z" fill="#000000" fill-rule="evenodd" fill-opacity="1"></path><path clip-path="url(#clip620)" d="M109.071 714.211 Q105.922 714.211 104.071 716.364 Q102.242 718.517 102.242 722.267 Q102.242 725.993 104.071 728.169 Q105.922 730.322 109.071 730.322 Q112.219 730.322 114.047 728.169 Q115.899 725.993 115.899 722.267 Q115.899 718.517 114.047 716.364 Q112.219 714.211 109.071 714.211 M118.353 699.558 L118.353 703.818 Q116.594 702.984 114.788 702.544 Q113.006 702.105 111.246 702.105 Q106.617 702.105 104.163 705.23 Q101.733 708.355 101.385 714.674 Q102.751 712.66 104.811 711.595 Q106.871 710.507 109.348 710.507 Q114.557 710.507 117.566 713.679 Q120.598 716.827 120.598 722.267 Q120.598 727.591 117.45 730.808 Q114.302 734.026 109.071 734.026 Q103.075 734.026 99.9039 729.442 Q96.7326 724.836 96.7326 716.109 Q96.7326 707.915 100.621 703.054 Q104.51 698.169 111.061 698.169 Q112.82 698.169 114.603 698.517 Q116.408 698.864 118.353 699.558 Z" fill="#000000" fill-rule="evenodd" fill-opacity="1"></path><path clip-path="url(#clip620)" d="M63.5152 387.822 Q59.9041 387.822 58.0754 391.387 Q56.2699 394.929 56.2699 402.058 Q56.2699 409.165 58.0754 412.73 Q59.9041 416.271 63.5152 416.271 Q67.1494 416.271 68.955 412.73 Q70.7837 409.165 70.7837 402.058 Q70.7837 394.929 68.955 391.387 Q67.1494 387.822 63.5152 387.822 M63.5152 384.119 Q69.3254 384.119 72.3809 388.725 Q75.4596 393.309 75.4596 402.058 Q75.4596 410.785 72.3809 415.392 Q69.3254 419.975 63.5152 419.975 Q57.7051 419.975 54.6264 415.392 Q51.5708 410.785 51.5708 402.058 Q51.5708 393.309 54.6264 388.725 Q57.7051 384.119 63.5152 384.119 Z" fill="#000000" fill-rule="evenodd" fill-opacity="1"></path><path clip-path="url(#clip620)" d="M83.6771 413.424 L88.5614 413.424 L88.5614 419.304 L83.6771 419.304 L83.6771 413.424 Z" fill="#000000" fill-rule="evenodd" fill-opacity="1"></path><path clip-path="url(#clip620)" d="M108.746 402.892 Q105.413 402.892 103.492 404.674 Q101.594 406.457 101.594 409.582 Q101.594 412.707 103.492 414.489 Q105.413 416.271 108.746 416.271 Q112.08 416.271 114.001 414.489 Q115.922 412.683 115.922 409.582 Q115.922 406.457 114.001 404.674 Q112.103 402.892 108.746 402.892 M104.071 400.901 Q101.061 400.16 99.3715 398.1 Q97.7048 396.04 97.7048 393.077 Q97.7048 388.934 100.645 386.526 Q103.608 384.119 108.746 384.119 Q113.908 384.119 116.848 386.526 Q119.788 388.934 119.788 393.077 Q119.788 396.04 118.098 398.1 Q116.432 400.16 113.445 400.901 Q116.825 401.688 118.7 403.98 Q120.598 406.271 120.598 409.582 Q120.598 414.605 117.52 417.29 Q114.464 419.975 108.746 419.975 Q103.029 419.975 99.9502 417.29 Q96.8947 414.605 96.8947 409.582 Q96.8947 406.271 98.7928 403.98 Q100.691 401.688 104.071 400.901 M102.358 393.517 Q102.358 396.202 104.024 397.707 Q105.714 399.211 108.746 399.211 Q111.756 399.211 113.445 397.707 Q115.158 396.202 115.158 393.517 Q115.158 390.832 113.445 389.327 Q111.756 387.822 108.746 387.822 Q105.714 387.822 104.024 389.327 Q102.358 390.832 102.358 393.517 Z" fill="#000000" fill-rule="evenodd" fill-opacity="1"></path><path clip-path="url(#clip620)" d="M54.2328 101.318 L61.8717 101.318 L61.8717 74.9524 L53.5616 76.619 L53.5616 72.3598 L61.8254 70.6931 L66.5013 70.6931 L66.5013 101.318 L74.1402 101.318 L74.1402 105.253 L54.2328 105.253 L54.2328 101.318 Z" fill="#000000" fill-rule="evenodd" fill-opacity="1"></path><path clip-path="url(#clip620)" d="M83.5845 99.3735 L88.4688 99.3735 L88.4688 105.253 L83.5845 105.253 L83.5845 99.3735 Z" fill="#000000" fill-rule="evenodd" fill-opacity="1"></path><path clip-path="url(#clip620)" d="M108.654 73.7718 Q105.043 73.7718 103.214 77.3366 Q101.409 80.8783 101.409 88.0079 Q101.409 95.1143 103.214 98.6791 Q105.043 102.221 108.654 102.221 Q112.288 102.221 114.094 98.6791 Q115.922 95.1143 115.922 88.0079 Q115.922 80.8783 114.094 77.3366 Q112.288 73.7718 108.654 73.7718 M108.654 70.0681 Q114.464 70.0681 117.52 74.6746 Q120.598 79.2579 120.598 88.0079 Q120.598 96.7347 117.52 101.341 Q114.464 105.924 108.654 105.924 Q102.844 105.924 99.765 101.341 Q96.7095 96.7347 96.7095 88.0079 Q96.7095 79.2579 99.765 74.6746 Q102.844 70.0681 108.654 70.0681 Z" fill="#000000" fill-rule="evenodd" fill-opacity="1"></path><polyline clip-path="url(#clip622)" style="stroke:#009af9; stroke-linecap:round; stroke-linejoin:round; stroke-width:4; stroke-opacity:1; fill:none" points="218.754,1445.72 220.828,1444.01 222.901,1442.29 224.975,1440.56 227.049,1438.83 229.123,1437.08 231.197,1435.32 233.271,1433.55 235.345,1431.77 237.419,1429.98 239.493,1428.18 241.567,1426.37 243.641,1424.55 245.715,1422.72 247.789,1420.88 249.862,1419.02 251.936,1417.16 254.01,1415.29 256.084,1413.4 258.158,1411.51 260.232,1409.6 262.306,1407.68 264.38,1405.76 266.454,1403.82 268.528,1401.87 270.602,1399.91 272.676,1397.94 274.75,1395.96 276.823,1393.97 278.897,1391.96 280.971,1389.95 283.045,1387.93 285.119,1385.89 287.193,1383.84 289.267,1381.79 291.341,1379.72 293.415,1377.64 295.489,1375.55 297.563,1373.45 299.637,1371.33 301.71,1369.21 303.784,1367.07 305.858,1364.93 307.932,1362.77 310.006,1360.6 312.08,1358.43 314.154,1356.23 316.228,1354.03 318.302,1351.82 320.376,1349.6 322.45,1347.36 324.524,1345.12 326.598,1342.86 328.671,1340.59 330.745,1338.31 332.819,1336.02 334.893,1333.72 336.967,1331.41 339.041,1329.08 341.115,1326.75 343.189,1324.4 345.263,1322.04 347.337,1319.68 349.411,1317.3 351.485,1314.9 353.558,1312.5 355.632,1310.09 357.706,1307.66 359.78,1305.23 361.854,1302.78 363.928,1300.32 366.002,1297.85 368.076,1295.37 370.15,1292.88 372.224,1290.37 374.298,1287.86 376.372,1285.33 378.446,1282.79 380.519,1280.24 382.593,1277.68 384.667,1275.11 386.741,1272.53 388.815,1269.94 390.889,1267.33 392.963,1264.72 395.037,1262.09 397.111,1259.45 399.185,1256.8 401.259,1254.14 403.333,1251.47 405.407,1248.79 407.48,1246.1 409.554,1243.39 411.628,1240.68 413.702,1237.95 415.776,1235.21 417.85,1232.46 419.924,1229.7 421.998,1226.93 424.072,1224.15 426.146,1221.36 428.22,1218.55 430.294,1215.74 432.367,1212.91 434.441,1210.08 436.515,1207.23 438.589,1204.37 440.663,1201.5 442.737,1198.63 444.811,1195.74 446.885,1192.83 448.959,1189.92 451.033,1187 453.107,1184.07 455.181,1181.13 457.255,1178.17 459.328,1175.21 461.402,1172.23 463.476,1169.25 465.55,1166.25 467.624,1163.24 469.698,1160.23 471.772,1157.2 473.846,1154.16 475.92,1151.11 477.994,1148.06 480.068,1144.99 482.142,1141.91 484.216,1138.82 486.289,1135.72 488.363,1132.61 490.437,1129.5 492.511,1126.37 494.585,1123.23 496.659,1120.08 498.733,1116.92 500.807,1113.75 502.881,1110.58 504.955,1107.39 507.029,1104.19 509.103,1100.98 511.176,1097.77 513.25,1094.54 515.324,1091.31 517.398,1088.06 519.472,1084.81 521.546,1081.54 523.62,1078.27 525.694,1074.99 527.768,1071.7 529.842,1068.4 531.916,1065.09 533.99,1061.77 536.064,1058.44 538.137,1055.11 540.211,1051.76 542.285,1048.41 544.359,1045.04 546.433,1041.67 548.507,1038.29 550.581,1034.9 552.655,1031.51 554.729,1028.1 556.803,1024.69 558.877,1021.27 560.951,1017.84 563.024,1014.4 565.098,1010.95 567.172,1007.5 569.246,1004.04 571.32,1000.56 573.394,997.087 575.468,993.601 577.542,990.108 579.616,986.607 581.69,983.098 583.764,979.582 585.838,976.059 587.912,972.528 589.985,968.99 592.059,965.445 594.133,961.893 596.207,958.334 598.281,954.768 600.355,951.195 602.429,947.615 604.503,944.029 606.577,940.436 608.651,936.837 610.725,933.231 612.799,929.619 614.873,926 616.946,922.376 619.02,918.745 621.094,915.109 623.168,911.466 625.242,907.818 627.316,904.163 629.39,900.504 631.464,896.838 633.538,893.167 635.612,889.491 637.686,885.81 639.76,882.123 641.833,878.431 643.907,874.735 645.981,871.033 648.055,867.327 650.129,863.615 652.203,859.9 654.277,856.179 656.351,852.455 658.425,848.726 660.499,844.992 662.573,841.255 664.647,837.514 666.721,833.768 668.794,830.019 670.868,826.266 672.942,822.51 675.016,818.75 677.09,814.987 679.164,811.22 681.238,807.45 683.312,803.677 685.386,799.901 687.46,796.123 689.534,792.341 691.608,788.557 693.681,784.77 695.755,780.981 697.829,777.19 699.903,773.396 701.977,769.601 704.051,765.803 706.125,762.003 708.199,758.202 710.273,754.399 712.347,750.595 714.421,746.789 716.495,742.982 718.569,739.174 720.642,735.364 722.716,731.554 724.79,727.743 726.864,723.931 728.938,720.119 731.012,716.306 733.086,712.493 735.16,708.68 737.234,704.866 739.308,701.053 741.382,697.24 743.456,693.427 745.53,689.614 747.603,685.802 749.677,681.991 751.751,678.18 753.825,674.37 755.899,670.562 757.973,666.754 760.047,662.948 762.121,659.143 764.195,655.34 766.269,651.538 768.343,647.738 770.417,643.94 772.49,640.144 774.564,636.35 776.638,632.559 778.712,628.77 780.786,624.984 782.86,621.2 784.934,617.419 787.008,613.641 789.082,609.866 791.156,606.094 793.23,602.326 795.304,598.561 797.378,594.8 799.451,591.043 801.525,587.289 803.599,583.54 805.673,579.795 807.747,576.054 809.821,572.317 811.895,568.585 813.969,564.858 816.043,561.135 818.117,557.418 820.191,553.706 822.265,549.998 824.339,546.297 826.412,542.6 828.486,538.91 830.56,535.225 832.634,531.546 834.708,527.874 836.782,524.207 838.856,520.547 840.93,516.893 843.004,513.246 845.078,509.606 847.152,505.972 849.226,502.346 851.299,498.727 853.373,495.115 855.447,491.51 857.521,487.913 859.595,484.324 861.669,480.743 863.743,477.17 865.817,473.605 867.891,470.048 869.965,466.499 872.039,462.96 874.113,459.428 876.187,455.906 878.26,452.393 880.334,448.889 882.408,445.394 884.482,441.908 886.556,438.432 888.63,434.966 890.704,431.51 892.778,428.063 894.852,424.627 896.926,421.2 899,417.785 901.074,414.379 903.147,410.985 905.221,407.601 907.295,404.228 909.369,400.866 911.443,397.515 913.517,394.176 915.591,390.848 917.665,387.532 919.739,384.227 921.813,380.934 923.887,377.654 925.961,374.385 928.035,371.129 930.108,367.885 932.182,364.654 934.256,361.436 936.33,358.23 938.404,355.037 940.478,351.858 942.552,348.692 944.626,345.539 946.7,342.399 948.774,339.273 950.848,336.161 952.922,333.063 954.996,329.979 957.069,326.909 959.143,323.853 961.217,320.812 963.291,317.785 965.365,314.773 967.439,311.776 969.513,308.794 971.587,305.827 973.661,302.875 975.735,299.938 977.809,297.017 979.883,294.112 981.956,291.222 984.03,288.348 986.104,285.49 988.178,282.648 990.252,279.822 992.326,277.013 994.4,274.22 996.474,271.444 998.548,268.684 1000.62,265.941 1002.7,263.215 1004.77,260.507 1006.84,257.815 1008.92,255.141 1010.99,252.484 1013.07,249.845 1015.14,247.223 1017.21,244.619 1019.29,242.033 1021.36,239.465 1023.43,236.915 1025.51,234.384 1027.58,231.871 1029.66,229.376 1031.73,226.9 1033.8,224.442 1035.88,222.004 1037.95,219.584 1040.03,217.183 1042.1,214.802 1044.17,212.439 1046.25,210.096 1048.32,207.773 1050.4,205.469 1052.47,203.185 1054.54,200.92 1056.62,198.676 1058.69,196.451 1060.77,194.246 1062.84,192.062 1064.91,189.898 1066.99,187.754 1069.06,185.631 1071.14,183.528 1073.21,181.446 1075.28,179.385 1077.36,177.345 1079.43,175.325 1081.5,173.327 1083.58,171.35 1085.65,169.394 1087.73,167.459 1089.8,165.546 1091.87,163.654 1093.95,161.784 1096.02,159.935 1098.1,158.109 1100.17,156.304 1102.24,154.521 1104.32,152.76 1106.39,151.021 1108.47,149.305 1110.54,147.61 1112.61,145.938 1114.69,144.289 1116.76,142.662 1118.84,141.057 1120.91,139.475 1122.98,137.916 1125.06,136.38 1127.13,134.867 1129.2,133.376 1131.28,131.909 1133.35,130.464 1135.43,129.043 1137.5,127.645 1139.57,126.27 1141.65,124.919 1143.72,123.591 1145.8,122.286 1147.87,121.005 1149.94,119.748 1152.02,118.514 1154.09,117.304 1156.17,116.118 1158.24,114.955 1160.31,113.817 1162.39,112.702 1164.46,111.612 1166.54,110.545 1168.61,109.502 1170.68,108.484 1172.76,107.49 1174.83,106.52 1176.91,105.574 1178.98,104.653 1181.05,103.756 1183.13,102.884 1185.2,102.036 1187.27,101.212 1189.35,100.413 1191.42,99.6388 1193.5,98.889 1195.57,98.1639 1197.64,97.4634 1199.72,96.7876 1201.79,96.1367 1203.87,95.5104 1205.94,94.909 1208.01,94.3325 1210.09,93.7808 1212.16,93.254 1214.24,92.7521 1216.31,92.2752 1218.38,91.8232 1220.46,91.3963 1222.53,90.9943 1224.61,90.6174 1226.68,90.2655 1228.75,89.9386 1230.83,89.6369 1232.9,89.3603 1234.97,89.1087 1237.05,88.8823 1239.12,88.681 1241.2,88.5048 1243.27,88.3538 1245.34,88.228 1247.42,88.1273 1249.49,88.0518 1251.57,88.0015 1253.64,87.9763 1255.71,87.9763 1257.79,88.0015 1259.86,88.0518 1261.94,88.1273 1264.01,88.228 1266.08,88.3538 1268.16,88.5048 1270.23,88.681 1272.31,88.8823 1274.38,89.1087 1276.45,89.3603 1278.53,89.6369 1280.6,89.9386 1282.68,90.2655 1284.75,90.6174 1286.82,90.9943 1288.9,91.3963 1290.97,91.8232 1293.04,92.2752 1295.12,92.7521 1297.19,93.254 1299.27,93.7808 1301.34,94.3325 1303.41,94.909 1305.49,95.5104 1307.56,96.1367 1309.64,96.7876 1311.71,97.4634 1313.78,98.1639 1315.86,98.889 1317.93,99.6388 1320.01,100.413 1322.08,101.212 1324.15,102.036 1326.23,102.884 1328.3,103.756 1330.38,104.653 1332.45,105.574 1334.52,106.52 1336.6,107.49 1338.67,108.484 1340.74,109.502 1342.82,110.545 1344.89,111.612 1346.97,112.702 1349.04,113.817 1351.11,114.955 1353.19,116.118 1355.26,117.304 1357.34,118.514 1359.41,119.748 1361.48,121.005 1363.56,122.286 1365.63,123.591 1367.71,124.919 1369.78,126.27 1371.85,127.645 1373.93,129.043 1376,130.464 1378.08,131.909 1380.15,133.376 1382.22,134.867 1384.3,136.38 1386.37,137.916 1388.44,139.475 1390.52,141.057 1392.59,142.662 1394.67,144.289 1396.74,145.938 1398.81,147.61 1400.89,149.305 1402.96,151.021 1405.04,152.76 1407.11,154.521 1409.18,156.304 1411.26,158.109 1413.33,159.935 1415.41,161.784 1417.48,163.654 1419.55,165.546 1421.63,167.459 1423.7,169.394 1425.78,171.35 1427.85,173.327 1429.92,175.325 1432,177.345 1434.07,179.385 1436.15,181.446 1438.22,183.528 1440.29,185.631 1442.37,187.754 1444.44,189.898 1446.51,192.062 1448.59,194.246 1450.66,196.451 1452.74,198.676 1454.81,200.92 1456.88,203.185 1458.96,205.469 1461.03,207.773 1463.11,210.096 1465.18,212.439 1467.25,214.802 1469.33,217.183 1471.4,219.584 1473.48,222.004 1475.55,224.442 1477.62,226.9 1479.7,229.376 1481.77,231.871 1483.85,234.384 1485.92,236.915 1487.99,239.465 1490.07,242.033 1492.14,244.619 1494.21,247.223 1496.29,249.845 1498.36,252.484 1500.44,255.141 1502.51,257.815 1504.58,260.507 1506.66,263.215 1508.73,265.941 1510.81,268.684 1512.88,271.444 1514.95,274.22 1517.03,277.013 1519.1,279.822 1521.18,282.648 1523.25,285.49 1525.32,288.348 1527.4,291.222 1529.47,294.112 1531.55,297.017 1533.62,299.938 1535.69,302.875 1537.77,305.827 1539.84,308.794 1541.92,311.776 1543.99,314.773 1546.06,317.785 1548.14,320.812 1550.21,323.853 1552.28,326.909 1554.36,329.979 1556.43,333.063 1558.51,336.161 1560.58,339.273 1562.65,342.399 1564.73,345.539 1566.8,348.692 1568.88,351.858 1570.95,355.037 1573.02,358.23 1575.1,361.436 1577.17,364.654 1579.25,367.885 1581.32,371.129 1583.39,374.385 1585.47,377.654 1587.54,380.934 1589.62,384.227 1591.69,387.532 1593.76,390.848 1595.84,394.176 1597.91,397.515 1599.98,400.866 1602.06,404.228 1604.13,407.601 1606.21,410.985 1608.28,414.379 1610.35,417.785 1612.43,421.2 1614.5,424.627 1616.58,428.063 1618.65,431.51 1620.72,434.966 1622.8,438.432 1624.87,441.908 1626.95,445.394 1629.02,448.889 1631.09,452.393 1633.17,455.906 1635.24,459.428 1637.32,462.96 1639.39,466.499 1641.46,470.048 1643.54,473.605 1645.61,477.17 1647.69,480.743 1649.76,484.324 1651.83,487.913 1653.91,491.51 1655.98,495.115 1658.05,498.727 1660.13,502.346 1662.2,505.972 1664.28,509.606 1666.35,513.246 1668.42,516.893 1670.5,520.547 1672.57,524.207 1674.65,527.874 1676.72,531.546 1678.79,535.225 1680.87,538.91 1682.94,542.6 1685.02,546.297 1687.09,549.998 1689.16,553.706 1691.24,557.418 1693.31,561.135 1695.39,564.858 1697.46,568.585 1699.53,572.317 1701.61,576.054 1703.68,579.795 1705.75,583.54 1707.83,587.289 1709.9,591.043 1711.98,594.8 1714.05,598.561 1716.12,602.326 1718.2,606.094 1720.27,609.866 1722.35,613.641 1724.42,617.419 1726.49,621.2 1728.57,624.984 1730.64,628.77 1732.72,632.559 1734.79,636.35 1736.86,640.144 1738.94,643.94 1741.01,647.738 1743.09,651.538 1745.16,655.34 1747.23,659.143 1749.31,662.948 1751.38,666.754 1753.46,670.562 1755.53,674.37 1757.6,678.18 1759.68,681.991 1761.75,685.802 1763.82,689.614 1765.9,693.427 1767.97,697.24 1770.05,701.053 1772.12,704.866 1774.19,708.68 1776.27,712.493 1778.34,716.306 1780.42,720.119 1782.49,723.931 1784.56,727.743 1786.64,731.554 1788.71,735.364 1790.79,739.174 1792.86,742.982 1794.93,746.789 1797.01,750.595 1799.08,754.399 1801.16,758.202 1803.23,762.003 1805.3,765.803 1807.38,769.601 1809.45,773.396 1811.52,777.19 1813.6,780.981 1815.67,784.77 1817.75,788.557 1819.82,792.341 1821.89,796.123 1823.97,799.901 1826.04,803.677 1828.12,807.45 1830.19,811.22 1832.26,814.987 1834.34,818.75 1836.41,822.51 1838.49,826.266 1840.56,830.019 1842.63,833.768 1844.71,837.514 1846.78,841.255 1848.86,844.992 1850.93,848.726 1853,852.455 1855.08,856.179 1857.15,859.9 1859.22,863.615 1861.3,867.327 1863.37,871.033 1865.45,874.735 1867.52,878.431 1869.59,882.123 1871.67,885.81 1873.74,889.491 1875.82,893.167 1877.89,896.838 1879.96,900.504 1882.04,904.163 1884.11,907.818 1886.19,911.466 1888.26,915.109 1890.33,918.745 1892.41,922.376 1894.48,926 1896.56,929.619 1898.63,933.231 1900.7,936.837 1902.78,940.436 1904.85,944.029 1906.93,947.615 1909,951.195 1911.07,954.768 1913.15,958.334 1915.22,961.893 1917.29,965.445 1919.37,968.99 1921.44,972.528 1923.52,976.059 1925.59,979.582 1927.66,983.098 1929.74,986.607 1931.81,990.108 1933.89,993.601 1935.96,997.087 1938.03,1000.56 1940.11,1004.04 1942.18,1007.5 1944.26,1010.95 1946.33,1014.4 1948.4,1017.84 1950.48,1021.27 1952.55,1024.69 1954.63,1028.1 1956.7,1031.51 1958.77,1034.9 1960.85,1038.29 1962.92,1041.67 1964.99,1045.04 1967.07,1048.41 1969.14,1051.76 1971.22,1055.11 1973.29,1058.44 1975.36,1061.77 1977.44,1065.09 1979.51,1068.4 1981.59,1071.7 1983.66,1074.99 1985.73,1078.27 1987.81,1081.54 1989.88,1084.81 1991.96,1088.06 1994.03,1091.31 1996.1,1094.54 1998.18,1097.77 2000.25,1100.98 2002.33,1104.19 2004.4,1107.39 2006.47,1110.58 2008.55,1113.75 2010.62,1116.92 2012.7,1120.08 2014.77,1123.23 2016.84,1126.37 2018.92,1129.5 2020.99,1132.61 2023.06,1135.72 2025.14,1138.82 2027.21,1141.91 2029.29,1144.99 2031.36,1148.06 2033.43,1151.11 2035.51,1154.16 2037.58,1157.2 2039.66,1160.23 2041.73,1163.24 2043.8,1166.25 2045.88,1169.25 2047.95,1172.23 2050.03,1175.21 2052.1,1178.17 2054.17,1181.13 2056.25,1184.07 2058.32,1187 2060.4,1189.92 2062.47,1192.83 2064.54,1195.74 2066.62,1198.63 2068.69,1201.5 2070.76,1204.37 2072.84,1207.23 2074.91,1210.08 2076.99,1212.91 2079.06,1215.74 2081.13,1218.55 2083.21,1221.36 2085.28,1224.15 2087.36,1226.93 2089.43,1229.7 2091.5,1232.46 2093.58,1235.21 2095.65,1237.95 2097.73,1240.68 2099.8,1243.39 2101.87,1246.1 2103.95,1248.79 2106.02,1251.47 2108.1,1254.14 2110.17,1256.8 2112.24,1259.45 2114.32,1262.09 2116.39,1264.72 2118.47,1267.33 2120.54,1269.94 2122.61,1272.53 2124.69,1275.11 2126.76,1277.68 2128.83,1280.24 2130.91,1282.79 2132.98,1285.33 2135.06,1287.86 2137.13,1290.37 2139.2,1292.88 2141.28,1295.37 2143.35,1297.85 2145.43,1300.32 2147.5,1302.78 2149.57,1305.23 2151.65,1307.66 2153.72,1310.09 2155.8,1312.5 2157.87,1314.9 2159.94,1317.3 2162.02,1319.68 2164.09,1322.04 2166.17,1324.4 2168.24,1326.75 2170.31,1329.08 2172.39,1331.41 2174.46,1333.72 2176.53,1336.02 2178.61,1338.31 2180.68,1340.59 2182.76,1342.86 2184.83,1345.12 2186.9,1347.36 2188.98,1349.6 2191.05,1351.82 2193.13,1354.03 2195.2,1356.23 2197.27,1358.43 2199.35,1360.6 2201.42,1362.77 2203.5,1364.93 2205.57,1367.07 2207.64,1369.21 2209.72,1371.33 2211.79,1373.45 2213.87,1375.55 2215.94,1377.64 2218.01,1379.72 2220.09,1381.79 2222.16,1383.84 2224.24,1385.89 2226.31,1387.93 2228.38,1389.95 2230.46,1391.96 2232.53,1393.97 2234.6,1395.96 2236.68,1397.94 2238.75,1399.91 2240.83,1401.87 2242.9,1403.82 2244.97,1405.76 2247.05,1407.68 2249.12,1409.6 2251.2,1411.51 2253.27,1413.4 2255.34,1415.29 2257.42,1417.16 2259.49,1419.02 2261.57,1420.88 2263.64,1422.72 2265.71,1424.55 2267.79,1426.37 2269.86,1428.18 2271.94,1429.98 2274.01,1431.77 2276.08,1433.55 2278.16,1435.32 2280.23,1437.08 2282.3,1438.83 2284.38,1440.56 2286.45,1442.29 2288.53,1444.01 2290.6,1445.72 "></polyline>
<path clip-path="url(#clip620)" d="M2007.5 198.898 L2279.55 198.898 L2279.55 95.2176 L2007.5 95.2176  Z" fill="#ffffff" fill-rule="evenodd" fill-opacity="1"></path>
<polyline clip-path="url(#clip620)" style="stroke:#000000; stroke-linecap:round; stroke-linejoin:round; stroke-width:4; stroke-opacity:1; fill:none" points="2007.5,198.898 2279.55,198.898 2279.55,95.2176 2007.5,95.2176 2007.5,198.898 "></polyline>
<polyline clip-path="url(#clip620)" style="stroke:#009af9; stroke-linecap:round; stroke-linejoin:round; stroke-width:4; stroke-opacity:1; fill:none" points="2031.91,147.058 2178.32,147.058 "></polyline>
<path clip-path="url(#clip620)" d="M2216.56 166.745 Q2214.76 171.375 2213.04 172.787 Q2211.33 174.199 2208.46 174.199 L2205.06 174.199 L2205.06 170.634 L2207.56 170.634 Q2209.32 170.634 2210.29 169.8 Q2211.26 168.967 2212.44 165.865 L2213.2 163.921 L2202.72 138.412 L2207.23 138.412 L2215.33 158.689 L2223.44 138.412 L2227.95 138.412 L2216.56 166.745 Z" fill="#000000" fill-rule="evenodd" fill-opacity="1"></path><path clip-path="url(#clip620)" d="M2235.24 160.402 L2242.88 160.402 L2242.88 134.037 L2234.57 135.703 L2234.57 131.444 L2242.83 129.778 L2247.51 129.778 L2247.51 160.402 L2255.15 160.402 L2255.15 164.338 L2235.24 164.338 L2235.24 160.402 Z" fill="#000000" fill-rule="evenodd" fill-opacity="1"></path></svg>