<svg xmlns="http://www.w3.org/2000/svg" xmlns:xlink="http://www.w3.org/1999/xlink" width="600" height="400" viewBox="0 0 2400 1600">
<defs>
  <clipPath id="clip740">
    <rect x="0" y="0" width="2400" height="1600"></rect>
  </clipPath>
</defs>
<path clip-path="url(#clip740)" d="M0 1600 L2400 1600 L2400 0 L0 0  Z" fill="#ffffff" fill-rule="evenodd" fill-opacity="1"></path>
<defs>
  <clipPath id="clip741">
    <rect x="480" y="0" width="1681" height="1600"></rect>
  </clipPath>
</defs>
<path clip-path="url(#clip740)" d="M148.867 1486.45 L2352.76 1486.45 L2352.76 47.2441 L148.867 47.2441  Z" fill="#ffffff" fill-rule="evenodd" fill-opacity="1"></path>
<defs>
  <clipPath id="clip742">
    <rect x="148" y="47" width="2205" height="1440"></rect>
  </clipPath>
</defs>
<polyline clip-path="url(#clip742)" style="stroke:#000000; stroke-linecap:round; stroke-linejoin:round; stroke-width:2; stroke-opacity:0.1; fill:none" points="211.241,1486.45 211.241,47.2441 "></polyline>
<polyline clip-path="url(#clip742)" style="stroke:#000000; stroke-linecap:round; stroke-linejoin:round; stroke-width:2; stroke-opacity:0.1; fill:none" points="731.026,1486.45 731.026,47.2441 "></polyline>
<polyline clip-path="url(#clip742)" style="stroke:#000000; stroke-linecap:round; stroke-linejoin:round; stroke-width:2; stroke-opacity:0.1; fill:none" points="1250.81,1486.45 1250.81,47.2441 "></polyline>
<polyline clip-path="url(#clip742)" style="stroke:#000000; stroke-linecap:round; stroke-linejoin:round; stroke-width:2; stroke-opacity:0.1; fill:none" points="1770.6,1486.45 1770.6,47.2441 "></polyline>
<polyline clip-path="url(#clip742)" style="stroke:#000000; stroke-linecap:round; stroke-linejoin:round; stroke-width:2; stroke-opacity:0.1; fill:none" points="2290.38,1486.45 2290.38,47.2441 "></polyline>
<polyline clip-path="url(#clip740)" style="stroke:#000000; stroke-linecap:round; stroke-linejoin:round; stroke-width:4; stroke-opacity:1; fill:none" points="148.867,1486.45 2352.76,1486.45 "></polyline>
<polyline clip-path="url(#clip740)" style="stroke:#000000; stroke-linecap:round; stroke-linejoin:round; stroke-width:4; stroke-opacity:1; fill:none" points="211.241,1486.45 211.241,1467.55 "></polyline>
<polyline clip-path="url(#clip740)" style="stroke:#000000; stroke-linecap:round; stroke-linejoin:round; stroke-width:4; stroke-opacity:1; fill:none" points="731.026,1486.45 731.026,1467.55 "></polyline>
<polyline clip-path="url(#clip740)" style="stroke:#000000; stroke-linecap:round; stroke-linejoin:round; stroke-width:4; stroke-opacity:1; fill:none" points="1250.81,1486.45 1250.81,1467.55 "></polyline>
<polyline clip-path="url(#clip740)" style="stroke:#000000; stroke-linecap:round; stroke-linejoin:round; stroke-width:4; stroke-opacity:1; fill:none" points="1770.6,1486.45 1770.6,1467.55 "></polyline>
<polyline clip-path="url(#clip740)" style="stroke:#000000; stroke-linecap:round; stroke-linejoin:round; stroke-width:4; stroke-opacity:1; fill:none" points="2290.38,1486.45 2290.38,1467.55 "></polyline>
<path clip-path="url(#clip740)" d="M181.183 1532.02 L210.859 1532.02 L210.859 1535.95 L181.183 1535.95 L181.183 1532.02 Z" fill="#000000" fill-rule="evenodd" fill-opacity="1"></path><path clip-path="url(#clip740)" d="M224.979 1544.91 L241.299 1544.91 L241.299 1548.85 L219.354 1548.85 L219.354 1544.91 Q222.016 1542.16 226.6 1537.53 Q231.206 1532.88 232.387 1531.53 Q234.632 1529.01 235.512 1527.27 Q236.414 1525.51 236.414 1523.82 Q236.414 1521.07 234.47 1519.33 Q232.549 1517.6 229.447 1517.6 Q227.248 1517.6 224.794 1518.36 Q222.364 1519.13 219.586 1520.68 L219.586 1515.95 Q222.41 1514.82 224.864 1514.24 Q227.317 1513.66 229.354 1513.66 Q234.725 1513.66 237.919 1516.35 Q241.114 1519.03 241.114 1523.52 Q241.114 1525.65 240.303 1527.57 Q239.516 1529.47 237.41 1532.07 Q236.831 1532.74 233.729 1535.95 Q230.627 1539.15 224.979 1544.91 Z" fill="#000000" fill-rule="evenodd" fill-opacity="1"></path><path clip-path="url(#clip740)" d="M700.783 1532.02 L730.459 1532.02 L730.459 1535.95 L700.783 1535.95 L700.783 1532.02 Z" fill="#000000" fill-rule="evenodd" fill-opacity="1"></path><path clip-path="url(#clip740)" d="M741.362 1544.91 L749.001 1544.91 L749.001 1518.55 L740.69 1520.21 L740.69 1515.95 L748.954 1514.29 L753.63 1514.29 L753.63 1544.91 L761.269 1544.91 L761.269 1548.85 L741.362 1548.85 L741.362 1544.91 Z" fill="#000000" fill-rule="evenodd" fill-opacity="1"></path><path clip-path="url(#clip740)" d="M1250.81 1517.37 Q1247.2 1517.37 1245.37 1520.93 Q1243.57 1524.47 1243.57 1531.6 Q1243.57 1538.71 1245.37 1542.27 Q1247.2 1545.82 1250.81 1545.82 Q1254.45 1545.82 1256.25 1542.27 Q1258.08 1538.71 1258.08 1531.6 Q1258.08 1524.47 1256.25 1520.93 Q1254.45 1517.37 1250.81 1517.37 M1250.81 1513.66 Q1256.62 1513.66 1259.68 1518.27 Q1262.76 1522.85 1262.76 1531.6 Q1262.76 1540.33 1259.68 1544.94 Q1256.62 1549.52 1250.81 1549.52 Q1245 1549.52 1241.92 1544.94 Q1238.87 1540.33 1238.87 1531.6 Q1238.87 1522.85 1241.92 1518.27 Q1245 1513.66 1250.81 1513.66 Z" fill="#000000" fill-rule="evenodd" fill-opacity="1"></path><path clip-path="url(#clip740)" d="M1760.98 1544.91 L1768.62 1544.91 L1768.62 1518.55 L1760.31 1520.21 L1760.31 1515.95 L1768.57 1514.29 L1773.25 1514.29 L1773.25 1544.91 L1780.89 1544.91 L1780.89 1548.85 L1760.98 1548.85 L1760.98 1544.91 Z" fill="#000000" fill-rule="evenodd" fill-opacity="1"></path><path clip-path="url(#clip740)" d="M2285.03 1544.91 L2301.35 1544.91 L2301.35 1548.85 L2279.41 1548.85 L2279.41 1544.91 Q2282.07 1542.16 2286.65 1537.53 Q2291.26 1532.88 2292.44 1531.53 Q2294.69 1529.01 2295.57 1527.27 Q2296.47 1525.51 2296.47 1523.82 Q2296.47 1521.07 2294.53 1519.33 Q2292.6 1517.6 2289.5 1517.6 Q2287.3 1517.6 2284.85 1518.36 Q2282.42 1519.13 2279.64 1520.68 L2279.64 1515.95 Q2282.47 1514.82 2284.92 1514.24 Q2287.37 1513.66 2289.41 1513.66 Q2294.78 1513.66 2297.97 1516.35 Q2301.17 1519.03 2301.17 1523.52 Q2301.17 1525.65 2300.36 1527.57 Q2299.57 1529.47 2297.46 1532.07 Q2296.89 1532.74 2293.78 1535.95 Q2290.68 1539.15 2285.03 1544.91 Z" fill="#000000" fill-rule="evenodd" fill-opacity="1"></path><polyline clip-path="url(#clip742)" style="stroke:#000000; stroke-linecap:round; stroke-linejoin:round; stroke-width:2; stroke-opacity:0.1; fill:none" points="148.867,1276 2352.76,1276 "></polyline>
<polyline clip-path="url(#clip742)" style="stroke:#000000; stroke-linecap:round; stroke-linejoin:round; stroke-width:2; stroke-opacity:0.1; fill:none" points="148.867,1021.42 2352.76,1021.42 "></polyline>
<polyline clip-path="url(#clip742)" style="stroke:#000000; stroke-linecap:round; stroke-linejoin:round; stroke-width:2; stroke-opacity:0.1; fill:none" points="148.867,766.846 2352.76,766.846 "></polyline>
<polyline clip-path="url(#clip742)" style="stroke:#000000; stroke-linecap:round; stroke-linejoin:round; stroke-width:2; stroke-opacity:0.1; fill:none" points="148.867,512.27 2352.76,512.27 "></polyline>
<polyline clip-path="url(#clip742)" style="stroke:#000000; stroke-linecap:round; stroke-linejoin:round; stroke-width:2; stroke-opacity:0.1; fill:none" points="148.867,257.694 2352.76,257.694 "></polyline>
<polyline clip-path="url(#clip740)" style="stroke:#000000; stroke-linecap:round; stroke-linejoin:round; stroke-width:4; stroke-opacity:1; fill:none" points="148.867,1486.45 148.867,47.2441 "></polyline>
<polyline clip-path="url(#clip740)" style="stroke:#000000; stroke-linecap:round; stroke-linejoin:round; stroke-width:4; stroke-opacity:1; fill:none" points="148.867,1276 167.764,1276 "></polyline>
<polyline clip-path="url(#clip740)" style="stroke:#000000; stroke-linecap:round; stroke-linejoin:round; stroke-width:4; stroke-opacity:1; fill:none" points="148.867,1021.42 167.764,1021.42 "></polyline>
<polyline clip-path="url(#clip740)" style="stroke:#000000; stroke-linecap:round; stroke-linejoin:round; stroke-width:4; stroke-opacity:1; fill:none" points="148.867,766.846 167.764,766.846 "></polyline>
<polyline clip-path="url(#clip740)" style="stroke:#000000; stroke-linecap:round; stroke-linejoin:round; stroke-width:4; stroke-opacity:1; fill:none" points="148.867,512.27 167.764,512.27 "></polyline>
<polyline clip-path="url(#clip740)" style="stroke:#000000; stroke-linecap:round; stroke-linejoin:round; stroke-width:4; stroke-opacity:1; fill:none" points="148.867,257.694 167.764,257.694 "></polyline>
<path clip-path="url(#clip740)" d="M50.9921 1276.45 L80.6679 1276.45 L80.6679 1280.38 L50.9921 1280.38 L50.9921 1276.45 Z" fill="#000000" fill-rule="evenodd" fill-opacity="1"></path><path clip-path="url(#clip740)" d="M101.339 1274.13 Q98.1909 1274.13 96.3391 1276.29 Q94.5104 1278.44 94.5104 1282.19 Q94.5104 1285.92 96.3391 1288.09 Q98.1909 1290.25 101.339 1290.25 Q104.487 1290.25 106.316 1288.09 Q108.168 1285.92 108.168 1282.19 Q108.168 1278.44 106.316 1276.29 Q104.487 1274.13 101.339 1274.13 M110.621 1259.48 L110.621 1263.74 Q108.862 1262.91 107.057 1262.47 Q105.274 1262.03 103.515 1262.03 Q98.8854 1262.03 96.4317 1265.15 Q94.0012 1268.28 93.6539 1274.6 Q95.0197 1272.58 97.0798 1271.52 Q99.14 1270.43 101.617 1270.43 Q106.825 1270.43 109.834 1273.6 Q112.867 1276.75 112.867 1282.19 Q112.867 1287.51 109.719 1290.73 Q106.571 1293.95 101.339 1293.95 Q95.3437 1293.95 92.1725 1289.37 Q89.0012 1284.76 89.0012 1276.03 Q89.0012 1267.84 92.89 1262.98 Q96.7789 1258.09 103.33 1258.09 Q105.089 1258.09 106.871 1258.44 Q108.677 1258.79 110.621 1259.48 Z" fill="#000000" fill-rule="evenodd" fill-opacity="1"></path><path clip-path="url(#clip740)" d="M51.8023 1021.87 L81.4781 1021.87 L81.4781 1025.81 L51.8023 1025.81 L51.8023 1021.87 Z" fill="#000000" fill-rule="evenodd" fill-opacity="1"></path><path clip-path="url(#clip740)" d="M105.737 1020.07 Q109.094 1020.79 110.969 1023.05 Q112.867 1025.32 112.867 1028.66 Q112.867 1033.77 109.348 1036.57 Q105.83 1039.37 99.3483 1039.37 Q97.1724 1039.37 94.8576 1038.93 Q92.566 1038.52 90.1123 1037.66 L90.1123 1033.15 Q92.0567 1034.28 94.3715 1034.86 Q96.6863 1035.44 99.2095 1035.44 Q103.608 1035.44 105.899 1033.7 Q108.214 1031.97 108.214 1028.66 Q108.214 1025.6 106.061 1023.89 Q103.932 1022.15 100.112 1022.15 L96.0845 1022.15 L96.0845 1018.31 L100.297 1018.31 Q103.746 1018.31 105.575 1016.94 Q107.404 1015.55 107.404 1012.96 Q107.404 1010.3 105.506 1008.89 Q103.631 1007.45 100.112 1007.45 Q98.1909 1007.45 95.9919 1007.87 Q93.7928 1008.29 91.1539 1009.17 L91.1539 1005 Q93.816 1004.26 96.1308 1003.89 Q98.4687 1003.52 100.529 1003.52 Q105.853 1003.52 108.955 1005.95 Q112.057 1008.36 112.057 1012.48 Q112.057 1015.35 110.413 1017.34 Q108.77 1019.3 105.737 1020.07 Z" fill="#000000" fill-rule="evenodd" fill-opacity="1"></path><path clip-path="url(#clip740)" d="M100.922 752.645 Q97.3113 752.645 95.4826 756.209 Q93.6771 759.751 93.6771 766.881 Q93.6771 773.987 95.4826 777.552 Q97.3113 781.094 100.922 781.094 Q104.557 781.094 106.362 777.552 Q108.191 773.987 108.191 766.881 Q108.191 759.751 106.362 756.209 Q104.557 752.645 100.922 752.645 M100.922 748.941 Q106.733 748.941 109.788 753.547 Q112.867 758.131 112.867 766.881 Q112.867 775.608 109.788 780.214 Q106.733 784.797 100.922 784.797 Q95.1123 784.797 92.0336 780.214 Q88.978 775.608 88.978 766.881 Q88.978 758.131 92.0336 753.547 Q95.1123 748.941 100.922 748.941 Z" fill="#000000" fill-rule="evenodd" fill-opacity="1"></path><path clip-path="url(#clip740)" d="M105.737 510.916 Q109.094 511.633 110.969 513.902 Q112.867 516.17 112.867 519.504 Q112.867 524.619 109.348 527.42 Q105.83 530.221 99.3483 530.221 Q97.1724 530.221 94.8576 529.781 Q92.566 529.365 90.1123 528.508 L90.1123 523.994 Q92.0567 525.129 94.3715 525.707 Q96.6863 526.286 99.2095 526.286 Q103.608 526.286 105.899 524.55 Q108.214 522.814 108.214 519.504 Q108.214 516.448 106.061 514.735 Q103.932 512.999 100.112 512.999 L96.0845 512.999 L96.0845 509.156 L100.297 509.156 Q103.746 509.156 105.575 507.791 Q107.404 506.402 107.404 503.809 Q107.404 501.147 105.506 499.735 Q103.631 498.3 100.112 498.3 Q98.1909 498.3 95.9919 498.717 Q93.7928 499.133 91.1539 500.013 L91.1539 495.846 Q93.816 495.106 96.1308 494.735 Q98.4687 494.365 100.529 494.365 Q105.853 494.365 108.955 496.795 Q112.057 499.203 112.057 503.323 Q112.057 506.193 110.413 508.184 Q108.77 510.152 105.737 510.916 Z" fill="#000000" fill-rule="evenodd" fill-opacity="1"></path><path clip-path="url(#clip740)" d="M101.339 255.83 Q98.1909 255.83 96.3391 257.983 Q94.5104 260.136 94.5104 263.886 Q94.5104 267.613 96.3391 269.789 Q98.1909 271.941 101.339 271.941 Q104.487 271.941 106.316 269.789 Q108.168 267.613 108.168 263.886 Q108.168 260.136 106.316 257.983 Q104.487 255.83 101.339 255.83 M110.621 241.178 L110.621 245.437 Q108.862 244.603 107.057 244.164 Q105.274 243.724 103.515 243.724 Q98.8854 243.724 96.4317 246.849 Q94.0012 249.974 93.6539 256.293 Q95.0197 254.279 97.0798 253.215 Q99.14 252.127 101.617 252.127 Q106.825 252.127 109.834 255.298 Q112.867 258.446 112.867 263.886 Q112.867 269.21 109.719 272.427 Q106.571 275.645 101.339 275.645 Q95.3437 275.645 92.1725 271.062 Q89.0012 266.455 89.0012 257.728 Q89.0012 249.534 92.89 244.673 Q96.7789 239.789 103.33 239.789 Q105.089 239.789 106.871 240.136 Q108.677 240.483 110.621 241.178 Z" fill="#000000" fill-rule="evenodd" fill-opacity="1"></path><polyline clip-path="url(#clip742)" style="stroke:#009af9; stroke-linecap:round; stroke-linejoin:round; stroke-width:4; stroke-opacity:1; fill:none" points="211.241,1445.72 213.322,1441.65 215.403,1437.59 217.485,1433.56 219.566,1429.54 221.647,1425.53 223.728,1421.54 225.81,1417.57 227.891,1413.62 229.972,1409.68 232.053,1405.75 234.134,1401.85 236.216,1397.95 238.297,1394.08 240.378,1390.22 242.459,1386.37 244.541,1382.55 246.622,1378.73 248.703,1374.94 250.784,1371.16 252.865,1367.39 254.947,1363.64 257.028,1359.91 259.109,1356.19 261.19,1352.49 263.272,1348.8 265.353,1345.13 267.434,1341.47 269.515,1337.83 271.596,1334.21 273.678,1330.6 275.759,1327 277.84,1323.42 279.921,1319.86 282.003,1316.31 284.084,1312.78 286.165,1309.26 288.246,1305.75 290.327,1302.27 292.409,1298.79 294.49,1295.34 296.571,1291.89 298.652,1288.46 300.734,1285.05 302.815,1281.65 304.896,1278.27 306.977,1274.9 309.058,1271.55 311.14,1268.21 313.221,1264.89 315.302,1261.58 317.383,1258.28 319.465,1255 321.546,1251.74 323.627,1248.49 325.708,1245.25 327.789,1242.03 329.871,1238.82 331.952,1235.63 334.033,1232.45 336.114,1229.29 338.196,1226.14 340.277,1223 342.358,1219.88 344.439,1216.78 346.52,1213.68 348.602,1210.61 350.683,1207.54 352.764,1204.49 354.845,1201.46 356.927,1198.43 359.008,1195.43 361.089,1192.43 363.17,1189.45 365.251,1186.49 367.333,1183.54 369.414,1180.6 371.495,1177.67 373.576,1174.76 375.658,1171.87 377.739,1168.98 379.82,1166.12 381.901,1163.26 383.982,1160.42 386.064,1157.59 388.145,1154.78 390.226,1151.98 392.307,1149.19 394.389,1146.41 396.47,1143.65 398.551,1140.91 400.632,1138.17 402.713,1135.45 404.795,1132.75 406.876,1130.05 408.957,1127.37 411.038,1124.7 413.12,1122.05 415.201,1119.41 417.282,1116.78 419.363,1114.17 421.444,1111.56 423.526,1108.98 425.607,1106.4 427.688,1103.84 429.769,1101.29 431.851,1098.75 433.932,1096.23 436.013,1093.72 438.094,1091.22 440.175,1088.73 442.257,1086.26 444.338,1083.8 446.419,1081.35 448.5,1078.92 450.582,1076.49 452.663,1074.08 454.744,1071.69 456.825,1069.3 458.906,1066.93 460.988,1064.57 463.069,1062.22 465.15,1059.89 467.231,1057.57 469.313,1055.26 471.394,1052.96 473.475,1050.67 475.556,1048.4 477.637,1046.14 479.719,1043.89 481.8,1041.65 483.881,1039.43 485.962,1037.21 488.044,1035.01 490.125,1032.82 492.206,1030.64 494.287,1028.48 496.368,1026.33 498.45,1024.18 500.531,1022.05 502.612,1019.94 504.693,1017.83 506.775,1015.74 508.856,1013.65 510.937,1011.58 513.018,1009.52 515.099,1007.48 517.181,1005.44 519.262,1003.41 521.343,1001.4 523.424,999.399 525.506,997.408 527.587,995.429 529.668,993.462 531.749,991.505 533.83,989.56 535.912,987.626 537.993,985.704 540.074,983.792 542.155,981.892 544.237,980.003 546.318,978.125 548.399,976.258 550.48,974.402 552.561,972.557 554.643,970.723 556.724,968.9 558.805,967.088 560.886,965.287 562.968,963.496 565.049,961.717 567.13,959.948 569.211,958.19 571.292,956.442 573.374,954.705 575.455,952.979 577.536,951.264 579.617,949.559 581.699,947.864 583.78,946.181 585.861,944.507 587.942,942.844 590.023,941.192 592.105,939.549 594.186,937.918 596.267,936.296 598.348,934.685 600.43,933.084 602.511,931.493 604.592,929.912 606.673,928.342 608.754,926.782 610.836,925.231 612.917,923.691 614.998,922.161 617.079,920.641 619.161,919.131 621.242,917.63 623.323,916.14 625.404,914.659 627.485,913.188 629.567,911.727 631.648,910.276 633.729,908.835 635.81,907.403 637.892,905.981 639.973,904.568 642.054,903.165 644.135,901.772 646.216,900.388 648.298,899.014 650.379,897.649 652.46,896.293 654.541,894.947 656.622,893.611 658.704,892.283 660.785,890.965 662.866,889.656 664.947,888.357 667.029,887.066 669.11,885.785 671.191,884.513 673.272,883.25 675.353,881.996 677.435,880.752 679.516,879.516 681.597,878.289 683.678,877.071 685.76,875.862 687.841,874.662 689.922,873.47 692.003,872.288 694.084,871.114 696.166,869.949 698.247,868.793 700.328,867.645 702.409,866.506 704.491,865.376 706.572,864.254 708.653,863.141 710.734,862.036 712.815,860.94 714.897,859.852 716.978,858.773 719.059,857.702 721.14,856.639 723.222,855.585 725.303,854.539 727.384,853.501 729.465,852.471 731.546,851.45 733.628,850.437 735.709,849.432 737.79,848.435 739.871,847.446 741.953,846.465 744.034,845.492 746.115,844.527 748.196,843.57 750.277,842.621 752.359,841.68 754.44,840.746 756.521,839.82 758.602,838.903 760.684,837.992 762.765,837.09 764.846,836.195 766.927,835.308 769.008,834.428 771.09,833.556 773.171,832.692 775.252,831.835 777.333,830.985 779.415,830.143 781.496,829.309 783.577,828.481 785.658,827.661 787.739,826.849 789.821,826.043 791.902,825.245 793.983,824.454 796.064,823.67 798.146,822.894 800.227,822.124 802.308,821.362 804.389,820.606 806.47,819.858 808.552,819.116 810.633,818.382 812.714,817.654 814.795,816.934 816.877,816.22 818.958,815.513 821.039,814.813 823.12,814.119 825.201,813.432 827.283,812.752 829.364,812.079 831.445,811.412 833.526,810.752 835.608,810.098 837.689,809.451 839.77,808.81 841.851,808.176 843.932,807.548 846.014,806.927 848.095,806.312 850.176,805.703 852.257,805.101 854.339,804.505 856.42,803.915 858.501,803.331 860.582,802.753 862.663,802.182 864.745,801.617 866.826,801.057 868.907,800.504 870.988,799.957 873.07,799.415 875.151,798.88 877.232,798.351 879.313,797.827 881.394,797.309 883.476,796.797 885.557,796.291 887.638,795.79 889.719,795.296 891.801,794.807 893.882,794.323 895.963,793.845 898.044,793.373 900.125,792.906 902.207,792.445 904.288,791.989 906.369,791.539 908.45,791.094 910.532,790.655 912.613,790.22 914.694,789.791 916.775,789.368 918.856,788.95 920.938,788.536 923.019,788.128 925.1,787.726 927.181,787.328 929.263,786.935 931.344,786.548 933.425,786.165 935.506,785.788 937.587,785.415 939.669,785.047 941.75,784.685 943.831,784.327 945.912,783.973 947.994,783.625 950.075,783.282 952.156,782.943 954.237,782.608 956.318,782.279 958.4,781.954 960.481,781.634 962.562,781.318 964.643,781.007 966.725,780.7 968.806,780.398 970.887,780.1 972.968,779.807 975.049,779.517 977.131,779.233 979.212,778.952 981.293,778.676 983.374,778.404 985.456,778.136 987.537,777.873 989.618,777.613 991.699,777.358 993.78,777.107 995.862,776.86 997.943,776.616 1000.02,776.377 1002.11,776.142 1004.19,775.91 1006.27,775.683 1008.35,775.459 1010.43,775.239 1012.51,775.023 1014.59,774.811 1016.67,774.602 1018.76,774.397 1020.84,774.196 1022.92,773.998 1025,773.804 1027.08,773.613 1029.16,773.426 1031.24,773.242 1033.32,773.062 1035.4,772.885 1037.49,772.712 1039.57,772.542 1041.65,772.375 1043.73,772.212 1045.81,772.052 1047.89,771.895 1049.97,771.741 1052.05,771.59 1054.14,771.443 1056.22,771.299 1058.3,771.157 1060.38,771.019 1062.46,770.884 1064.54,770.751 1066.62,770.622 1068.7,770.495 1070.79,770.372 1072.87,770.251 1074.95,770.133 1077.03,770.017 1079.11,769.905 1081.19,769.795 1083.27,769.688 1085.35,769.583 1087.44,769.481 1089.52,769.382 1091.6,769.285 1093.68,769.19 1095.76,769.098 1097.84,769.009 1099.92,768.922 1102,768.837 1104.09,768.755 1106.17,768.675 1108.25,768.597 1110.33,768.521 1112.41,768.448 1114.49,768.377 1116.57,768.308 1118.65,768.241 1120.73,768.176 1122.82,768.113 1124.9,768.052 1126.98,767.993 1129.06,767.937 1131.14,767.882 1133.22,767.828 1135.3,767.777 1137.38,767.728 1139.47,767.68 1141.55,767.634 1143.63,767.59 1145.71,767.548 1147.79,767.507 1149.87,767.467 1151.95,767.43 1154.03,767.394 1156.12,767.359 1158.2,767.326 1160.28,767.294 1162.36,767.264 1164.44,767.235 1166.52,767.208 1168.6,767.182 1170.68,767.157 1172.77,767.133 1174.85,767.111 1176.93,767.09 1179.01,767.07 1181.09,767.051 1183.17,767.033 1185.25,767.016 1187.33,767.001 1189.42,766.986 1191.5,766.972 1193.58,766.959 1195.66,766.947 1197.74,766.936 1199.82,766.926 1201.9,766.917 1203.98,766.908 1206.07,766.9 1208.15,766.893 1210.23,766.886 1212.31,766.88 1214.39,766.875 1216.47,766.87 1218.55,766.866 1220.63,766.863 1222.71,766.859 1224.8,766.857 1226.88,766.854 1228.96,766.852 1231.04,766.851 1233.12,766.849 1235.2,766.848 1237.28,766.847 1239.36,766.847 1241.45,766.846 1243.53,766.846 1245.61,766.846 1247.69,766.846 1249.77,766.846 1251.85,766.846 1253.93,766.846 1256.01,766.846 1258.1,766.846 1260.18,766.845 1262.26,766.845 1264.34,766.844 1266.42,766.844 1268.5,766.843 1270.58,766.841 1272.66,766.84 1274.75,766.838 1276.83,766.835 1278.91,766.833 1280.99,766.829 1283.07,766.826 1285.15,766.822 1287.23,766.817 1289.31,766.811 1291.4,766.806 1293.48,766.799 1295.56,766.792 1297.64,766.784 1299.72,766.775 1301.8,766.766 1303.88,766.756 1305.96,766.745 1308.04,766.733 1310.13,766.72 1312.21,766.706 1314.29,766.691 1316.37,766.676 1318.45,766.659 1320.53,766.641 1322.61,766.622 1324.69,766.602 1326.78,766.581 1328.86,766.559 1330.94,766.535 1333.02,766.51 1335.1,766.484 1337.18,766.457 1339.26,766.428 1341.34,766.398 1343.43,766.366 1345.51,766.333 1347.59,766.298 1349.67,766.262 1351.75,766.225 1353.83,766.185 1355.91,766.144 1357.99,766.102 1360.08,766.058 1362.16,766.012 1364.24,765.964 1366.32,765.915 1368.4,765.864 1370.48,765.81 1372.56,765.755 1374.64,765.699 1376.73,765.64 1378.81,765.579 1380.89,765.516 1382.97,765.451 1385.05,765.384 1387.13,765.315 1389.21,765.244 1391.29,765.171 1393.38,765.095 1395.46,765.017 1397.54,764.937 1399.62,764.855 1401.7,764.77 1403.78,764.683 1405.86,764.594 1407.94,764.502 1410.02,764.407 1412.11,764.31 1414.19,764.211 1416.27,764.109 1418.35,764.004 1420.43,763.897 1422.51,763.787 1424.59,763.675 1426.67,763.559 1428.76,763.441 1430.84,763.32 1432.92,763.197 1435,763.07 1437.08,762.941 1439.16,762.808 1441.24,762.673 1443.32,762.535 1445.41,762.393 1447.49,762.249 1449.57,762.101 1451.65,761.951 1453.73,761.797 1455.81,761.64 1457.89,761.48 1459.97,761.317 1462.06,761.15 1464.14,760.98 1466.22,760.806 1468.3,760.63 1470.38,760.45 1472.46,760.266 1474.54,760.079 1476.62,759.888 1478.71,759.694 1480.79,759.496 1482.87,759.295 1484.95,759.09 1487.03,758.881 1489.11,758.669 1491.19,758.453 1493.27,758.233 1495.35,758.009 1497.44,757.782 1499.52,757.55 1501.6,757.315 1503.68,757.076 1505.76,756.832 1507.84,756.585 1509.92,756.334 1512,756.079 1514.09,755.819 1516.17,755.556 1518.25,755.288 1520.33,755.016 1522.41,754.74 1524.49,754.459 1526.57,754.174 1528.65,753.885 1530.74,753.592 1532.82,753.294 1534.9,752.992 1536.98,752.685 1539.06,752.374 1541.14,752.058 1543.22,751.738 1545.3,751.413 1547.39,751.084 1549.47,750.749 1551.55,750.41 1553.63,750.067 1555.71,749.719 1557.79,749.365 1559.87,749.007 1561.95,748.645 1564.04,748.277 1566.12,747.904 1568.2,747.527 1570.28,747.144 1572.36,746.757 1574.44,746.364 1576.52,745.966 1578.6,745.564 1580.69,745.156 1582.77,744.742 1584.85,744.324 1586.93,743.9 1589.01,743.472 1591.09,743.037 1593.17,742.598 1595.25,742.153 1597.33,741.703 1599.42,741.247 1601.5,740.786 1603.58,740.319 1605.66,739.847 1607.74,739.369 1609.82,738.885 1611.9,738.396 1613.98,737.901 1616.07,737.401 1618.15,736.895 1620.23,736.383 1622.31,735.865 1624.39,735.341 1626.47,734.812 1628.55,734.277 1630.63,733.735 1632.72,733.188 1634.8,732.635 1636.88,732.075 1638.96,731.51 1641.04,730.939 1643.12,730.361 1645.2,729.777 1647.28,729.187 1649.37,728.591 1651.45,727.989 1653.53,727.38 1655.61,726.765 1657.69,726.144 1659.77,725.516 1661.85,724.882 1663.93,724.241 1666.02,723.594 1668.1,722.94 1670.18,722.28 1672.26,721.613 1674.34,720.94 1676.42,720.26 1678.5,719.573 1680.58,718.879 1682.66,718.179 1684.75,717.472 1686.83,716.758 1688.91,716.037 1690.99,715.31 1693.07,714.575 1695.15,713.834 1697.23,713.086 1699.31,712.33 1701.4,711.568 1703.48,710.798 1705.56,710.022 1707.64,709.238 1709.72,708.447 1711.8,707.649 1713.88,706.843 1715.96,706.031 1718.05,705.211 1720.13,704.383 1722.21,703.549 1724.29,702.707 1726.37,701.857 1728.45,701 1730.53,700.136 1732.61,699.264 1734.7,698.384 1736.78,697.497 1738.86,696.602 1740.94,695.7 1743.02,694.789 1745.1,693.872 1747.18,692.946 1749.26,692.012 1751.35,691.071 1753.43,690.122 1755.51,689.165 1757.59,688.2 1759.67,687.227 1761.75,686.246 1763.83,685.257 1765.91,684.26 1767.99,683.255 1770.08,682.242 1772.16,681.22 1774.24,680.191 1776.32,679.153 1778.4,678.107 1780.48,677.053 1782.56,675.99 1784.64,674.919 1786.73,673.84 1788.81,672.752 1790.89,671.656 1792.97,670.551 1795.05,669.438 1797.13,668.316 1799.21,667.186 1801.29,666.047 1803.38,664.899 1805.46,663.743 1807.54,662.578 1809.62,661.404 1811.7,660.222 1813.78,659.03 1815.86,657.83 1817.94,656.621 1820.03,655.403 1822.11,654.176 1824.19,652.94 1826.27,651.696 1828.35,650.442 1830.43,649.179 1832.51,647.907 1834.59,646.625 1836.68,645.335 1838.76,644.036 1840.84,642.727 1842.92,641.409 1845,640.081 1847.08,638.745 1849.16,637.399 1851.24,636.043 1853.33,634.678 1855.41,633.304 1857.49,631.92 1859.57,630.527 1861.65,629.124 1863.73,627.711 1865.81,626.289 1867.89,624.857 1869.97,623.416 1872.06,621.964 1874.14,620.503 1876.22,619.033 1878.3,617.552 1880.38,616.062 1882.46,614.561 1884.54,613.051 1886.62,611.531 1888.71,610.001 1890.79,608.461 1892.87,606.91 1894.95,605.35 1897.03,603.779 1899.11,602.199 1901.19,600.608 1903.27,599.007 1905.36,597.396 1907.44,595.774 1909.52,594.143 1911.6,592.5 1913.68,590.848 1915.76,589.185 1917.84,587.511 1919.92,585.828 1922.01,584.133 1924.09,582.428 1926.17,580.713 1928.25,578.987 1930.33,577.25 1932.41,575.502 1934.49,573.744 1936.57,571.975 1938.66,570.196 1940.74,568.405 1942.82,566.604 1944.9,564.792 1946.98,562.969 1949.06,561.135 1951.14,559.29 1953.22,557.434 1955.3,555.567 1957.39,553.689 1959.47,551.8 1961.55,549.9 1963.63,547.988 1965.71,546.066 1967.79,544.132 1969.87,542.187 1971.95,540.23 1974.04,538.263 1976.12,536.284 1978.2,534.293 1980.28,532.291 1982.36,530.278 1984.44,528.253 1986.52,526.217 1988.6,524.169 1990.69,522.109 1992.77,520.038 1994.85,517.956 1996.93,515.861 1999.01,513.755 2001.09,511.637 2003.17,509.507 2005.25,507.366 2007.34,505.213 2009.42,503.047 2011.5,500.87 2013.58,498.681 2015.66,496.48 2017.74,494.267 2019.82,492.042 2021.9,489.805 2023.99,487.555 2026.07,485.294 2028.15,483.02 2030.23,480.734 2032.31,478.436 2034.39,476.126 2036.47,473.803 2038.55,471.468 2040.64,469.121 2042.72,466.761 2044.8,464.389 2046.88,462.004 2048.96,459.607 2051.04,457.197 2053.12,454.775 2055.2,452.34 2057.28,449.893 2059.37,447.433 2061.45,444.96 2063.53,442.474 2065.61,439.976 2067.69,437.465 2069.77,434.941 2071.85,432.404 2073.93,429.854 2076.02,427.291 2078.1,424.716 2080.18,422.127 2082.26,419.526 2084.34,416.911 2086.42,414.283 2088.5,411.642 2090.58,408.988 2092.67,406.321 2094.75,403.64 2096.83,400.947 2098.91,398.24 2100.99,395.519 2103.07,392.786 2105.15,390.039 2107.23,387.278 2109.32,384.504 2111.4,381.717 2113.48,378.916 2115.56,376.101 2117.64,373.273 2119.72,370.432 2121.8,367.576 2123.88,364.707 2125.97,361.825 2128.05,358.928 2130.13,356.018 2132.21,353.094 2134.29,350.156 2136.37,347.204 2138.45,344.239 2140.53,341.259 2142.61,338.265 2144.7,335.258 2146.78,332.236 2148.86,329.201 2150.94,326.151 2153.02,323.087 2155.1,320.009 2157.18,316.917 2159.26,313.81 2161.35,310.689 2163.43,307.554 2165.51,304.405 2167.59,301.241 2169.67,298.063 2171.75,294.87 2173.83,291.663 2175.91,288.441 2178,285.205 2180.08,281.955 2182.16,278.689 2184.24,275.41 2186.32,272.115 2188.4,268.806 2190.48,265.482 2192.56,262.143 2194.65,258.79 2196.73,255.421 2198.81,252.038 2200.89,248.64 2202.97,245.227 2205.05,241.799 2207.13,238.356 2209.21,234.898 2211.3,231.425 2213.38,227.937 2215.46,224.434 2217.54,220.916 2219.62,217.382 2221.7,213.834 2223.78,210.27 2225.86,206.69 2227.95,203.096 2230.03,199.486 2232.11,195.861 2234.19,192.22 2236.27,188.564 2238.35,184.892 2240.43,181.205 2242.51,177.502 2244.59,173.784 2246.68,170.05 2248.76,166.301 2250.84,162.536 2252.92,158.755 2255,154.958 2257.08,151.146 2259.16,147.317 2261.24,143.473 2263.33,139.614 2265.41,135.738 2267.49,131.846 2269.57,127.938 2271.65,124.015 2273.73,120.075 2275.81,116.119 2277.89,112.147 2279.98,108.159 2282.06,104.155 2284.14,100.135 2286.22,96.0983 2288.3,92.0454 2290.38,87.9763 "></polyline>
<path clip-path="url(#clip740)" d="M222.33 198.898 L495.149 198.898 L495.149 95.2176 L222.33 95.2176  Z" fill="#ffffff" fill-rule="evenodd" fill-opacity="1"></path>
<polyline clip-path="url(#clip740)" style="stroke:#000000; stroke-linecap:round; stroke-linejoin:round; stroke-width:4; stroke-opacity:1; fill:none" points="222.33,198.898 495.149,198.898 495.149,95.2176 222.33,95.2176 222.33,198.898 "></polyline>
<polyline clip-path="url(#clip740)" style="stroke:#009af9; stroke-linecap:round; stroke-linejoin:round; stroke-width:4; stroke-opacity:1; fill:none" points="246.817,147.058 393.743,147.058 "></polyline>
<path clip-path="url(#clip740)" d="M432.074 166.745 Q430.268 171.375 428.555 172.787 Q426.842 174.199 423.972 174.199 L420.569 174.199 L420.569 170.634 L423.069 170.634 Q424.828 170.634 425.8 169.8 Q426.773 168.967 427.953 165.865 L428.717 163.921 L418.231 138.412 L422.745 138.412 L430.847 158.689 L438.949 138.412 L443.462 138.412 L432.074 166.745 Z" fill="#000000" fill-rule="evenodd" fill-opacity="1"></path><path clip-path="url(#clip740)" d="M450.754 160.402 L458.393 160.402 L458.393 134.037 L450.083 135.703 L450.083 131.444 L458.347 129.778 L463.022 129.778 L463.022 160.402 L470.661 160.402 L470.661 164.338 L450.754 164.338 L450.754 160.402 Z" fill="#000000" fill-rule="evenodd" fill-opacity="1"></path></svg>