<svg xmlns="http://www.w3.org/2000/svg" xmlns:xlink="http://www.w3.org/1999/xlink" width="600" height="400" viewBox="0 0 2400 1600">
<defs>
  <clipPath id="clip780">
    <rect x="0" y="0" width="2400" height="1600"></rect>
  </clipPath>
</defs>
<path clip-path="url(#clip780)" d="M0 1600 L2400 1600 L2400 0 L0 0  Z" fill="#ffffff" fill-rule="evenodd" fill-opacity="1"></path>
<defs>
  <clipPath id="clip781">
    <rect x="480" y="0" width="1681" height="1600"></rect>
  </clipPath>
</defs>
<path clip-path="url(#clip780)" d="M224.098 1486.45 L2352.76 1486.45 L2352.76 47.2441 L224.098 47.2441  Z" fill="#ffffff" fill-rule="evenodd" fill-opacity="1"></path>
<defs>
  <clipPath id="clip782">
    <rect x="224" y="47" width="2130" height="1440"></rect>
  </clipPath>
</defs>
<polyline clip-path="url(#clip782)" style="stroke:#000000; stroke-linecap:round; stroke-linejoin:round; stroke-width:2; stroke-opacity:0.1; fill:none" points="284.343,1486.45 284.343,47.2441 "></polyline>
<polyline clip-path="url(#clip782)" style="stroke:#000000; stroke-linecap:round; stroke-linejoin:round; stroke-width:2; stroke-opacity:0.1; fill:none" points="786.385,1486.45 786.385,47.2441 "></polyline>
<polyline clip-path="url(#clip782)" style="stroke:#000000; stroke-linecap:round; stroke-linejoin:round; stroke-width:2; stroke-opacity:0.1; fill:none" points="1288.43,1486.45 1288.43,47.2441 "></polyline>
<polyline clip-path="url(#clip782)" style="stroke:#000000; stroke-linecap:round; stroke-linejoin:round; stroke-width:2; stroke-opacity:0.1; fill:none" points="1790.47,1486.45 1790.47,47.2441 "></polyline>
<polyline clip-path="url(#clip782)" style="stroke:#000000; stroke-linecap:round; stroke-linejoin:round; stroke-width:2; stroke-opacity:0.1; fill:none" points="2292.51,1486.45 2292.51,47.2441 "></polyline>
<polyline clip-path="url(#clip780)" style="stroke:#000000; stroke-linecap:round; stroke-linejoin:round; stroke-width:4; stroke-opacity:1; fill:none" points="224.098,1486.45 2352.76,1486.45 "></polyline>
<polyline clip-path="url(#clip780)" style="stroke:#000000; stroke-linecap:round; stroke-linejoin:round; stroke-width:4; stroke-opacity:1; fill:none" points="284.343,1486.45 284.343,1467.55 "></polyline>
<polyline clip-path="url(#clip780)" style="stroke:#000000; stroke-linecap:round; stroke-linejoin:round; stroke-width:4; stroke-opacity:1; fill:none" points="786.385,1486.45 786.385,1467.55 "></polyline>
<polyline clip-path="url(#clip780)" style="stroke:#000000; stroke-linecap:round; stroke-linejoin:round; stroke-width:4; stroke-opacity:1; fill:none" points="1288.43,1486.45 1288.43,1467.55 "></polyline>
<polyline clip-path="url(#clip780)" style="stroke:#000000; stroke-linecap:round; stroke-linejoin:round; stroke-width:4; stroke-opacity:1; fill:none" points="1790.47,1486.45 1790.47,1467.55 "></polyline>
<polyline clip-path="url(#clip780)" style="stroke:#000000; stroke-linecap:round; stroke-linejoin:round; stroke-width:4; stroke-opacity:1; fill:none" points="2292.51,1486.45 2292.51,1467.55 "></polyline>
<path clip-path="url(#clip780)" d="M254.285 1532.02 L283.961 1532.02 L283.961 1535.95 L254.285 1535.95 L254.285 1532.02 Z" fill="#000000" fill-rule="evenodd" fill-opacity="1"></path><path clip-path="url(#clip780)" d="M298.081 1544.91 L314.401 1544.91 L314.401 1548.85 L292.456 1548.85 L292.456 1544.91 Q295.118 1542.16 299.702 1537.53 Q304.308 1532.88 305.489 1531.53 Q307.734 1529.01 308.614 1527.27 Q309.516 1525.51 309.516 1523.82 Q309.516 1521.07 307.572 1519.33 Q305.651 1517.6 302.549 1517.6 Q300.35 1517.6 297.896 1518.36 Q295.466 1519.13 292.688 1520.68 L292.688 1515.95 Q295.512 1514.82 297.966 1514.24 Q300.419 1513.66 302.456 1513.66 Q307.827 1513.66 311.021 1516.35 Q314.215 1519.03 314.215 1523.52 Q314.215 1525.65 313.405 1527.57 Q312.618 1529.47 310.512 1532.07 Q309.933 1532.74 306.831 1535.95 Q303.729 1539.15 298.081 1544.91 Z" fill="#000000" fill-rule="evenodd" fill-opacity="1"></path><path clip-path="url(#clip780)" d="M756.142 1532.02 L785.818 1532.02 L785.818 1535.95 L756.142 1535.95 L756.142 1532.02 Z" fill="#000000" fill-rule="evenodd" fill-opacity="1"></path><path clip-path="url(#clip780)" d="M796.72 1544.91 L804.359 1544.91 L804.359 1518.55 L796.049 1520.21 L796.049 1515.95 L804.313 1514.29 L808.989 1514.29 L808.989 1544.91 L816.628 1544.91 L816.628 1548.85 L796.72 1548.85 L796.72 1544.91 Z" fill="#000000" fill-rule="evenodd" fill-opacity="1"></path><path clip-path="url(#clip780)" d="M1288.43 1517.37 Q1284.82 1517.37 1282.99 1520.93 Q1281.18 1524.47 1281.18 1531.6 Q1281.18 1538.71 1282.99 1542.27 Q1284.82 1545.82 1288.43 1545.82 Q1292.06 1545.82 1293.87 1542.27 Q1295.7 1538.71 1295.7 1531.6 Q1295.7 1524.47 1293.87 1520.93 Q1292.06 1517.37 1288.43 1517.37 M1288.43 1513.66 Q1294.24 1513.66 1297.29 1518.27 Q1300.37 1522.85 1300.37 1531.6 Q1300.37 1540.33 1297.29 1544.94 Q1294.24 1549.52 1288.43 1549.52 Q1282.62 1549.52 1279.54 1544.94 Q1276.48 1540.33 1276.48 1531.6 Q1276.48 1522.85 1279.54 1518.27 Q1282.62 1513.66 1288.43 1513.66 Z" fill="#000000" fill-rule="evenodd" fill-opacity="1"></path><path clip-path="url(#clip780)" d="M1780.85 1544.91 L1788.49 1544.91 L1788.49 1518.55 L1780.18 1520.21 L1780.18 1515.95 L1788.44 1514.29 L1793.12 1514.29 L1793.12 1544.91 L1800.76 1544.91 L1800.76 1548.85 L1780.85 1548.85 L1780.85 1544.91 Z" fill="#000000" fill-rule="evenodd" fill-opacity="1"></path><path clip-path="url(#clip780)" d="M2287.16 1544.91 L2303.48 1544.91 L2303.48 1548.85 L2281.54 1548.85 L2281.54 1544.91 Q2284.2 1542.16 2288.78 1537.53 Q2293.39 1532.88 2294.57 1531.53 Q2296.82 1529.01 2297.7 1527.27 Q2298.6 1525.51 2298.6 1523.82 Q2298.6 1521.07 2296.65 1519.33 Q2294.73 1517.6 2291.63 1517.6 Q2289.43 1517.6 2286.98 1518.36 Q2284.55 1519.13 2281.77 1520.68 L2281.77 1515.95 Q2284.59 1514.82 2287.05 1514.24 Q2289.5 1513.66 2291.54 1513.66 Q2296.91 1513.66 2300.1 1516.35 Q2303.3 1519.03 2303.3 1523.52 Q2303.3 1525.65 2302.49 1527.57 Q2301.7 1529.47 2299.59 1532.07 Q2299.02 1532.74 2295.91 1535.95 Q2292.81 1539.15 2287.16 1544.91 Z" fill="#000000" fill-rule="evenodd" fill-opacity="1"></path><polyline clip-path="url(#clip782)" style="stroke:#000000; stroke-linecap:round; stroke-linejoin:round; stroke-width:2; stroke-opacity:0.1; fill:none" points="224.098,1326.48 2352.76,1326.48 "></polyline>
<polyline clip-path="url(#clip782)" style="stroke:#000000; stroke-linecap:round; stroke-linejoin:round; stroke-width:2; stroke-opacity:0.1; fill:none" points="224.098,1046.66 2352.76,1046.66 "></polyline>
<polyline clip-path="url(#clip782)" style="stroke:#000000; stroke-linecap:round; stroke-linejoin:round; stroke-width:2; stroke-opacity:0.1; fill:none" points="224.098,766.846 2352.76,766.846 "></polyline>
<polyline clip-path="url(#clip782)" style="stroke:#000000; stroke-linecap:round; stroke-linejoin:round; stroke-width:2; stroke-opacity:0.1; fill:none" points="224.098,487.029 2352.76,487.029 "></polyline>
<polyline clip-path="url(#clip782)" style="stroke:#000000; stroke-linecap:round; stroke-linejoin:round; stroke-width:2; stroke-opacity:0.1; fill:none" points="224.098,207.212 2352.76,207.212 "></polyline>
<polyline clip-path="url(#clip780)" style="stroke:#000000; stroke-linecap:round; stroke-linejoin:round; stroke-width:4; stroke-opacity:1; fill:none" points="224.098,1486.45 224.098,47.2441 "></polyline>
<polyline clip-path="url(#clip780)" style="stroke:#000000; stroke-linecap:round; stroke-linejoin:round; stroke-width:4; stroke-opacity:1; fill:none" points="224.098,1326.48 242.996,1326.48 "></polyline>
<polyline clip-path="url(#clip780)" style="stroke:#000000; stroke-linecap:round; stroke-linejoin:round; stroke-width:4; stroke-opacity:1; fill:none" points="224.098,1046.66 242.996,1046.66 "></polyline>
<polyline clip-path="url(#clip780)" style="stroke:#000000; stroke-linecap:round; stroke-linejoin:round; stroke-width:4; stroke-opacity:1; fill:none" points="224.098,766.846 242.996,766.846 "></polyline>
<polyline clip-path="url(#clip780)" style="stroke:#000000; stroke-linecap:round; stroke-linejoin:round; stroke-width:4; stroke-opacity:1; fill:none" points="224.098,487.029 242.996,487.029 "></polyline>
<polyline clip-path="url(#clip780)" style="stroke:#000000; stroke-linecap:round; stroke-linejoin:round; stroke-width:4; stroke-opacity:1; fill:none" points="224.098,207.212 242.996,207.212 "></polyline>
<path clip-path="url(#clip780)" d="M50.9921 1326.93 L80.6679 1326.93 L80.6679 1330.87 L50.9921 1330.87 L50.9921 1326.93 Z" fill="#000000" fill-rule="evenodd" fill-opacity="1"></path><path clip-path="url(#clip780)" d="M100.76 1312.28 Q97.1493 1312.28 95.3206 1315.84 Q93.515 1319.39 93.515 1326.51 Q93.515 1333.62 95.3206 1337.19 Q97.1493 1340.73 100.76 1340.73 Q104.395 1340.73 106.2 1337.19 Q108.029 1333.62 108.029 1326.51 Q108.029 1319.39 106.2 1315.84 Q104.395 1312.28 100.76 1312.28 M100.76 1308.58 Q106.571 1308.58 109.626 1313.18 Q112.705 1317.76 112.705 1326.51 Q112.705 1335.24 109.626 1339.85 Q106.571 1344.43 100.76 1344.43 Q94.9502 1344.43 91.8715 1339.85 Q88.816 1335.24 88.816 1326.51 Q88.816 1317.76 91.8715 1313.18 Q94.9502 1308.58 100.76 1308.58 Z" fill="#000000" fill-rule="evenodd" fill-opacity="1"></path><path clip-path="url(#clip780)" d="M120.922 1337.88 L125.807 1337.88 L125.807 1343.76 L120.922 1343.76 L120.922 1337.88 Z" fill="#000000" fill-rule="evenodd" fill-opacity="1"></path><path clip-path="url(#clip780)" d="M136.038 1309.2 L154.394 1309.2 L154.394 1313.14 L140.32 1313.14 L140.32 1321.61 Q141.339 1321.26 142.357 1321.1 Q143.376 1320.91 144.394 1320.91 Q150.181 1320.91 153.561 1324.08 Q156.941 1327.26 156.941 1332.67 Q156.941 1338.25 153.468 1341.35 Q149.996 1344.43 143.677 1344.43 Q141.501 1344.43 139.232 1344.06 Q136.987 1343.69 134.58 1342.95 L134.58 1338.25 Q136.663 1339.39 138.885 1339.94 Q141.107 1340.5 143.584 1340.5 Q147.589 1340.5 149.927 1338.39 Q152.265 1336.28 152.265 1332.67 Q152.265 1329.06 149.927 1326.95 Q147.589 1324.85 143.584 1324.85 Q141.709 1324.85 139.834 1325.26 Q137.982 1325.68 136.038 1326.56 L136.038 1309.2 Z" fill="#000000" fill-rule="evenodd" fill-opacity="1"></path><path clip-path="url(#clip780)" d="M176.153 1312.28 Q172.542 1312.28 170.714 1315.84 Q168.908 1319.39 168.908 1326.51 Q168.908 1333.62 170.714 1337.19 Q172.542 1340.73 176.153 1340.73 Q179.788 1340.73 181.593 1337.19 Q183.422 1333.62 183.422 1326.51 Q183.422 1319.39 181.593 1315.84 Q179.788 1312.28 176.153 1312.28 M176.153 1308.58 Q181.964 1308.58 185.019 1313.18 Q188.098 1317.76 188.098 1326.51 Q188.098 1335.24 185.019 1339.85 Q181.964 1344.43 176.153 1344.43 Q170.343 1344.43 167.265 1339.85 Q164.209 1335.24 164.209 1326.51 Q164.209 1317.76 167.265 1313.18 Q170.343 1308.58 176.153 1308.58 Z" fill="#000000" fill-rule="evenodd" fill-opacity="1"></path><path clip-path="url(#clip780)" d="M51.9875 1047.11 L81.6633 1047.11 L81.6633 1051.05 L51.9875 1051.05 L51.9875 1047.11 Z" fill="#000000" fill-rule="evenodd" fill-opacity="1"></path><path clip-path="url(#clip780)" d="M101.756 1032.46 Q98.1447 1032.46 96.316 1036.03 Q94.5104 1039.57 94.5104 1046.7 Q94.5104 1053.8 96.316 1057.37 Q98.1447 1060.91 101.756 1060.91 Q105.39 1060.91 107.196 1057.37 Q109.024 1053.8 109.024 1046.7 Q109.024 1039.57 107.196 1036.03 Q105.39 1032.46 101.756 1032.46 M101.756 1028.76 Q107.566 1028.76 110.621 1033.36 Q113.7 1037.95 113.7 1046.7 Q113.7 1055.42 110.621 1060.03 Q107.566 1064.61 101.756 1064.61 Q95.9456 1064.61 92.8669 1060.03 Q89.8114 1055.42 89.8114 1046.7 Q89.8114 1037.95 92.8669 1033.36 Q95.9456 1028.76 101.756 1028.76 Z" fill="#000000" fill-rule="evenodd" fill-opacity="1"></path><path clip-path="url(#clip780)" d="M121.918 1058.06 L126.802 1058.06 L126.802 1063.94 L121.918 1063.94 L121.918 1058.06 Z" fill="#000000" fill-rule="evenodd" fill-opacity="1"></path><path clip-path="url(#clip780)" d="M141.015 1060.01 L157.334 1060.01 L157.334 1063.94 L135.39 1063.94 L135.39 1060.01 Q138.052 1057.25 142.635 1052.62 Q147.242 1047.97 148.422 1046.63 Q150.668 1044.11 151.547 1042.37 Q152.45 1040.61 152.45 1038.92 Q152.45 1036.17 150.505 1034.43 Q148.584 1032.69 145.482 1032.69 Q143.283 1032.69 140.83 1033.46 Q138.399 1034.22 135.621 1035.77 L135.621 1031.05 Q138.445 1029.92 140.899 1029.34 Q143.353 1028.76 145.39 1028.76 Q150.76 1028.76 153.955 1031.44 Q157.149 1034.13 157.149 1038.62 Q157.149 1040.75 156.339 1042.67 Q155.552 1044.57 153.445 1047.16 Q152.867 1047.83 149.765 1051.05 Q146.663 1054.24 141.015 1060.01 Z" fill="#000000" fill-rule="evenodd" fill-opacity="1"></path><path clip-path="url(#clip780)" d="M167.195 1029.38 L185.552 1029.38 L185.552 1033.32 L171.478 1033.32 L171.478 1041.79 Q172.496 1041.44 173.515 1041.28 Q174.533 1041.1 175.552 1041.1 Q181.339 1041.1 184.718 1044.27 Q188.098 1047.44 188.098 1052.86 Q188.098 1058.43 184.626 1061.54 Q181.153 1064.61 174.834 1064.61 Q172.658 1064.61 170.39 1064.24 Q168.144 1063.87 165.737 1063.13 L165.737 1058.43 Q167.82 1059.57 170.042 1060.12 Q172.265 1060.68 174.741 1060.68 Q178.746 1060.68 181.084 1058.57 Q183.422 1056.47 183.422 1052.86 Q183.422 1049.24 181.084 1047.14 Q178.746 1045.03 174.741 1045.03 Q172.866 1045.03 170.991 1045.45 Q169.14 1045.86 167.195 1046.74 L167.195 1029.38 Z" fill="#000000" fill-rule="evenodd" fill-opacity="1"></path><path clip-path="url(#clip780)" d="M100.76 752.645 Q97.1493 752.645 95.3206 756.209 Q93.515 759.751 93.515 766.881 Q93.515 773.987 95.3206 777.552 Q97.1493 781.094 100.76 781.094 Q104.395 781.094 106.2 777.552 Q108.029 773.987 108.029 766.881 Q108.029 759.751 106.2 756.209 Q104.395 752.645 100.76 752.645 M100.76 748.941 Q106.571 748.941 109.626 753.547 Q112.705 758.131 112.705 766.881 Q112.705 775.608 109.626 780.214 Q106.571 784.797 100.76 784.797 Q94.9502 784.797 91.8715 780.214 Q88.816 775.608 88.816 766.881 Q88.816 758.131 91.8715 753.547 Q94.9502 748.941 100.76 748.941 Z" fill="#000000" fill-rule="evenodd" fill-opacity="1"></path><path clip-path="url(#clip780)" d="M120.922 778.246 L125.807 778.246 L125.807 784.126 L120.922 784.126 L120.922 778.246 Z" fill="#000000" fill-rule="evenodd" fill-opacity="1"></path><path clip-path="url(#clip780)" d="M145.992 752.645 Q142.381 752.645 140.552 756.209 Q138.746 759.751 138.746 766.881 Q138.746 773.987 140.552 777.552 Q142.381 781.094 145.992 781.094 Q149.626 781.094 151.431 777.552 Q153.26 773.987 153.26 766.881 Q153.26 759.751 151.431 756.209 Q149.626 752.645 145.992 752.645 M145.992 748.941 Q151.802 748.941 154.857 753.547 Q157.936 758.131 157.936 766.881 Q157.936 775.608 154.857 780.214 Q151.802 784.797 145.992 784.797 Q140.181 784.797 137.103 780.214 Q134.047 775.608 134.047 766.881 Q134.047 758.131 137.103 753.547 Q140.181 748.941 145.992 748.941 Z" fill="#000000" fill-rule="evenodd" fill-opacity="1"></path><path clip-path="url(#clip780)" d="M176.153 752.645 Q172.542 752.645 170.714 756.209 Q168.908 759.751 168.908 766.881 Q168.908 773.987 170.714 777.552 Q172.542 781.094 176.153 781.094 Q179.788 781.094 181.593 777.552 Q183.422 773.987 183.422 766.881 Q183.422 759.751 181.593 756.209 Q179.788 752.645 176.153 752.645 M176.153 748.941 Q181.964 748.941 185.019 753.547 Q188.098 758.131 188.098 766.881 Q188.098 775.608 185.019 780.214 Q181.964 784.797 176.153 784.797 Q170.343 784.797 167.265 780.214 Q164.209 775.608 164.209 766.881 Q164.209 758.131 167.265 753.547 Q170.343 748.941 176.153 748.941 Z" fill="#000000" fill-rule="evenodd" fill-opacity="1"></path><path clip-path="url(#clip780)" d="M101.756 472.828 Q98.1447 472.828 96.316 476.392 Q94.5104 479.934 94.5104 487.064 Q94.5104 494.17 96.316 497.735 Q98.1447 501.277 101.756 501.277 Q105.39 501.277 107.196 497.735 Q109.024 494.17 109.024 487.064 Q109.024 479.934 107.196 476.392 Q105.39 472.828 101.756 472.828 M101.756 469.124 Q107.566 469.124 110.621 473.73 Q113.7 478.314 113.7 487.064 Q113.7 495.79 110.621 500.397 Q107.566 504.98 101.756 504.98 Q95.9456 504.98 92.8669 500.397 Q89.8114 495.79 89.8114 487.064 Q89.8114 478.314 92.8669 473.73 Q95.9456 469.124 101.756 469.124 Z" fill="#000000" fill-rule="evenodd" fill-opacity="1"></path><path clip-path="url(#clip780)" d="M121.918 498.429 L126.802 498.429 L126.802 504.309 L121.918 504.309 L121.918 498.429 Z" fill="#000000" fill-rule="evenodd" fill-opacity="1"></path><path clip-path="url(#clip780)" d="M141.015 500.374 L157.334 500.374 L157.334 504.309 L135.39 504.309 L135.39 500.374 Q138.052 497.619 142.635 492.99 Q147.242 488.337 148.422 486.994 Q150.668 484.471 151.547 482.735 Q152.45 480.976 152.45 479.286 Q152.45 476.531 150.505 474.795 Q148.584 473.059 145.482 473.059 Q143.283 473.059 140.83 473.823 Q138.399 474.587 135.621 476.138 L135.621 471.416 Q138.445 470.281 140.899 469.703 Q143.353 469.124 145.39 469.124 Q150.76 469.124 153.955 471.809 Q157.149 474.494 157.149 478.985 Q157.149 481.115 156.339 483.036 Q155.552 484.934 153.445 487.527 Q152.867 488.198 149.765 491.416 Q146.663 494.61 141.015 500.374 Z" fill="#000000" fill-rule="evenodd" fill-opacity="1"></path><path clip-path="url(#clip780)" d="M167.195 469.749 L185.552 469.749 L185.552 473.684 L171.478 473.684 L171.478 482.156 Q172.496 481.809 173.515 481.647 Q174.533 481.462 175.552 481.462 Q181.339 481.462 184.718 484.633 Q188.098 487.804 188.098 493.221 Q188.098 498.8 184.626 501.902 Q181.153 504.98 174.834 504.98 Q172.658 504.98 170.39 504.61 Q168.144 504.24 165.737 503.499 L165.737 498.8 Q167.82 499.934 170.042 500.49 Q172.265 501.045 174.741 501.045 Q178.746 501.045 181.084 498.939 Q183.422 496.832 183.422 493.221 Q183.422 489.61 181.084 487.504 Q178.746 485.397 174.741 485.397 Q172.866 485.397 170.991 485.814 Q169.14 486.23 167.195 487.11 L167.195 469.749 Z" fill="#000000" fill-rule="evenodd" fill-opacity="1"></path><path clip-path="url(#clip780)" d="M100.76 193.011 Q97.1493 193.011 95.3206 196.575 Q93.515 200.117 93.515 207.247 Q93.515 214.353 95.3206 217.918 Q97.1493 221.46 100.76 221.46 Q104.395 221.46 106.2 217.918 Q108.029 214.353 108.029 207.247 Q108.029 200.117 106.2 196.575 Q104.395 193.011 100.76 193.011 M100.76 189.307 Q106.571 189.307 109.626 193.913 Q112.705 198.497 112.705 207.247 Q112.705 215.973 109.626 220.58 Q106.571 225.163 100.76 225.163 Q94.9502 225.163 91.8715 220.58 Q88.816 215.973 88.816 207.247 Q88.816 198.497 91.8715 193.913 Q94.9502 189.307 100.76 189.307 Z" fill="#000000" fill-rule="evenodd" fill-opacity="1"></path><path clip-path="url(#clip780)" d="M120.922 218.612 L125.807 218.612 L125.807 224.492 L120.922 224.492 L120.922 218.612 Z" fill="#000000" fill-rule="evenodd" fill-opacity="1"></path><path clip-path="url(#clip780)" d="M136.038 189.932 L154.394 189.932 L154.394 193.867 L140.32 193.867 L140.32 202.339 Q141.339 201.992 142.357 201.83 Q143.376 201.645 144.394 201.645 Q150.181 201.645 153.561 204.816 Q156.941 207.987 156.941 213.404 Q156.941 218.983 153.468 222.085 Q149.996 225.163 143.677 225.163 Q141.501 225.163 139.232 224.793 Q136.987 224.423 134.58 223.682 L134.58 218.983 Q136.663 220.117 138.885 220.673 Q141.107 221.228 143.584 221.228 Q147.589 221.228 149.927 219.122 Q152.265 217.015 152.265 213.404 Q152.265 209.793 149.927 207.686 Q147.589 205.58 143.584 205.58 Q141.709 205.58 139.834 205.997 Q137.982 206.413 136.038 207.293 L136.038 189.932 Z" fill="#000000" fill-rule="evenodd" fill-opacity="1"></path><path clip-path="url(#clip780)" d="M176.153 193.011 Q172.542 193.011 170.714 196.575 Q168.908 200.117 168.908 207.247 Q168.908 214.353 170.714 217.918 Q172.542 221.46 176.153 221.46 Q179.788 221.46 181.593 217.918 Q183.422 214.353 183.422 207.247 Q183.422 200.117 181.593 196.575 Q179.788 193.011 176.153 193.011 M176.153 189.307 Q181.964 189.307 185.019 193.913 Q188.098 198.497 188.098 207.247 Q188.098 215.973 185.019 220.58 Q181.964 225.163 176.153 225.163 Q170.343 225.163 167.265 220.58 Q164.209 215.973 164.209 207.247 Q164.209 198.497 167.265 193.913 Q170.343 189.307 176.153 189.307 Z" fill="#000000" fill-rule="evenodd" fill-opacity="1"></path><polyline clip-path="url(#clip782)" style="stroke:#009af9; stroke-linecap:round; stroke-linejoin:round; stroke-width:4; stroke-opacity:1; fill:none" points="284.343,1069.8 286.353,1071.62 288.363,1073.45 290.373,1075.28 292.384,1077.12 294.394,1078.96 296.404,1080.8 298.414,1082.65 300.424,1084.51 302.435,1086.37 304.445,1088.23 306.455,1090.1 308.465,1091.97 310.475,1093.84 312.485,1095.73 314.496,1097.61 316.506,1099.5 318.516,1101.39 320.526,1103.29 322.536,1105.19 324.546,1107.09 326.557,1109 328.567,1110.91 330.577,1112.83 332.587,1114.74 334.597,1116.67 336.608,1118.59 338.618,1120.52 340.628,1122.45 342.638,1124.39 344.648,1126.33 346.658,1128.27 348.669,1130.21 350.679,1132.16 352.689,1134.11 354.699,1136.07 356.709,1138.02 358.72,1139.98 360.73,1141.94 362.74,1143.91 364.75,1145.87 366.76,1147.84 368.77,1149.81 370.781,1151.78 372.791,1153.76 374.801,1155.74 376.811,1157.71 378.821,1159.7 380.831,1161.68 382.842,1163.66 384.852,1165.65 386.862,1167.64 388.872,1169.62 390.882,1171.62 392.893,1173.61 394.903,1175.6 396.913,1177.59 398.923,1179.59 400.933,1181.58 402.943,1183.58 404.954,1185.58 406.964,1187.58 408.974,1189.57 410.984,1191.57 412.994,1193.57 415.004,1195.57 417.015,1197.57 419.025,1199.57 421.035,1201.57 423.045,1203.57 425.055,1205.57 427.066,1207.57 429.076,1209.57 431.086,1211.57 433.096,1213.57 435.106,1215.56 437.116,1217.56 439.127,1219.55 441.137,1221.55 443.147,1223.54 445.157,1225.53 447.167,1227.53 449.178,1229.51 451.188,1231.5 453.198,1233.49 455.208,1235.47 457.218,1237.46 459.228,1239.44 461.239,1241.42 463.249,1243.39 465.259,1245.37 467.269,1247.34 469.279,1249.31 471.289,1251.27 473.3,1253.24 475.31,1255.2 477.32,1257.16 479.33,1259.11 481.34,1261.06 483.351,1263.01 485.361,1264.96 487.371,1266.9 489.381,1268.84 491.391,1270.77 493.401,1272.7 495.412,1274.63 497.422,1276.55 499.432,1278.47 501.442,1280.38 503.452,1282.29 505.463,1284.2 507.473,1286.1 509.483,1287.99 511.493,1289.88 513.503,1291.77 515.513,1293.65 517.524,1295.52 519.534,1297.39 521.544,1299.25 523.554,1301.11 525.564,1302.96 527.574,1304.81 529.585,1306.65 531.595,1308.48 533.605,1310.31 535.615,1312.13 537.625,1313.95 539.636,1315.76 541.646,1317.56 543.656,1319.35 545.666,1321.14 547.676,1322.92 549.686,1324.69 551.697,1326.45 553.707,1328.21 555.717,1329.96 557.727,1331.7 559.737,1333.44 561.747,1335.16 563.758,1336.88 565.768,1338.59 567.778,1340.29 569.788,1341.98 571.798,1343.67 573.809,1345.34 575.819,1347.01 577.829,1348.66 579.839,1350.31 581.849,1351.95 583.859,1353.57 585.87,1355.19 587.88,1356.8 589.89,1358.4 591.9,1359.99 593.91,1361.56 595.921,1363.13 597.931,1364.69 599.941,1366.24 601.951,1367.77 603.961,1369.3 605.971,1370.81 607.982,1372.31 609.992,1373.8 612.002,1375.28 614.012,1376.75 616.022,1378.21 618.032,1379.65 620.043,1381.09 622.053,1382.51 624.063,1383.92 626.073,1385.31 628.083,1386.7 630.094,1388.07 632.104,1389.43 634.114,1390.77 636.124,1392.11 638.134,1393.42 640.144,1394.73 642.155,1396.02 644.165,1397.3 646.175,1398.57 648.185,1399.82 650.195,1401.06 652.206,1402.28 654.216,1403.49 656.226,1404.69 658.236,1405.87 660.246,1407.03 662.256,1408.18 664.267,1409.32 666.277,1410.44 668.287,1411.55 670.297,1412.64 672.307,1413.72 674.317,1414.78 676.328,1415.82 678.338,1416.85 680.348,1417.86 682.358,1418.86 684.368,1419.84 686.379,1420.81 688.389,1421.75 690.399,1422.69 692.409,1423.6 694.419,1424.5 696.429,1425.38 698.44,1426.25 700.45,1427.09 702.46,1427.92 704.47,1428.74 706.48,1429.53 708.49,1430.31 710.501,1431.07 712.511,1431.81 714.521,1432.54 716.531,1433.24 718.541,1433.93 720.552,1434.6 722.562,1435.25 724.572,1435.88 726.582,1436.5 728.592,1437.09 730.602,1437.67 732.613,1438.23 734.623,1438.77 736.633,1439.29 738.643,1439.79 740.653,1440.27 742.664,1440.73 744.674,1441.17 746.684,1441.59 748.694,1441.99 750.704,1442.37 752.714,1442.73 754.725,1443.08 756.735,1443.4 758.745,1443.7 760.755,1443.98 762.765,1444.24 764.775,1444.48 766.786,1444.7 768.796,1444.89 770.806,1445.07 772.816,1445.23 774.826,1445.36 776.837,1445.47 778.847,1445.56 780.857,1445.63 782.867,1445.68 784.877,1445.71 786.887,1445.72 788.898,1445.7 790.908,1445.66 792.918,1445.6 794.928,1445.52 796.938,1445.41 798.949,1445.29 800.959,1445.14 802.969,1444.97 804.979,1444.77 806.989,1444.56 808.999,1444.32 811.01,1444.06 813.02,1443.77 815.03,1443.47 817.04,1443.14 819.05,1442.78 821.06,1442.41 823.071,1442.01 825.081,1441.59 827.091,1441.14 829.101,1440.67 831.111,1440.18 833.122,1439.66 835.132,1439.12 837.142,1438.56 839.152,1437.98 841.162,1437.37 843.172,1436.73 845.183,1436.08 847.193,1435.39 849.203,1434.69 851.213,1433.96 853.223,1433.21 855.234,1432.43 857.244,1431.63 859.254,1430.8 861.264,1429.95 863.274,1429.08 865.284,1428.18 867.295,1427.26 869.305,1426.31 871.315,1425.34 873.325,1424.35 875.335,1423.33 877.345,1422.29 879.356,1421.22 881.366,1420.12 883.376,1419.01 885.386,1417.86 887.396,1416.7 889.407,1415.51 891.417,1414.29 893.427,1413.05 895.437,1411.78 897.447,1410.5 899.457,1409.18 901.468,1407.84 903.478,1406.48 905.488,1405.09 907.498,1403.68 909.508,1402.24 911.518,1400.77 913.529,1399.29 915.539,1397.77 917.549,1396.24 919.559,1394.67 921.569,1393.09 923.58,1391.48 925.59,1389.84 927.6,1388.18 929.61,1386.49 931.62,1384.78 933.63,1383.05 935.641,1381.29 937.651,1379.5 939.661,1377.69 941.671,1375.86 943.681,1374 945.692,1372.12 947.702,1370.21 949.712,1368.28 951.722,1366.32 953.732,1364.34 955.742,1362.33 957.753,1360.3 959.763,1358.25 961.773,1356.17 963.783,1354.07 965.793,1351.94 967.803,1349.79 969.814,1347.61 971.824,1345.41 973.834,1343.18 975.844,1340.94 977.854,1338.66 979.865,1336.37 981.875,1334.05 983.885,1331.7 985.895,1329.33 987.905,1326.94 989.915,1324.52 991.926,1322.09 993.936,1319.62 995.946,1317.14 997.956,1314.63 999.966,1312.09 1001.98,1309.53 1003.99,1306.95 1006,1304.35 1008.01,1301.72 1010.02,1299.08 1012.03,1296.4 1014.04,1293.71 1016.05,1290.99 1018.06,1288.25 1020.07,1285.48 1022.08,1282.7 1024.09,1279.89 1026.1,1277.06 1028.11,1274.21 1030.12,1271.33 1032.13,1268.43 1034.14,1265.51 1036.15,1262.57 1038.16,1259.61 1040.17,1256.62 1042.18,1253.62 1044.19,1250.59 1046.2,1247.54 1048.21,1244.47 1050.22,1241.37 1052.23,1238.26 1054.24,1235.13 1056.25,1231.97 1058.26,1228.79 1060.27,1225.6 1062.28,1222.38 1064.29,1219.14 1066.3,1215.88 1068.31,1212.61 1070.32,1209.31 1072.33,1205.99 1074.34,1202.65 1076.35,1199.29 1078.36,1195.92 1080.37,1192.52 1082.38,1189.1 1084.39,1185.67 1086.4,1182.21 1088.41,1178.74 1090.42,1175.25 1092.43,1171.74 1094.44,1168.21 1096.45,1164.66 1098.47,1161.1 1100.48,1157.51 1102.49,1153.91 1104.5,1150.29 1106.51,1146.65 1108.52,1143 1110.53,1139.33 1112.54,1135.64 1114.55,1131.93 1116.56,1128.21 1118.57,1124.47 1120.58,1120.71 1122.59,1116.94 1124.6,1113.15 1126.61,1109.35 1128.62,1105.53 1130.63,1101.69 1132.64,1097.84 1134.65,1093.97 1136.66,1090.09 1138.67,1086.19 1140.68,1082.28 1142.69,1078.35 1144.7,1074.41 1146.71,1070.46 1148.72,1066.48 1150.73,1062.5 1152.74,1058.5 1154.75,1054.49 1156.76,1050.46 1158.77,1046.43 1160.78,1042.37 1162.79,1038.31 1164.8,1034.23 1166.81,1030.14 1168.82,1026.04 1170.83,1021.92 1172.84,1017.8 1174.85,1013.66 1176.86,1009.51 1178.87,1005.34 1180.88,1001.17 1182.89,996.986 1184.9,992.791 1186.91,988.585 1188.92,984.368 1190.93,980.141 1192.94,975.904 1194.95,971.657 1196.96,967.401 1198.97,963.134 1200.98,958.859 1202.99,954.574 1205,950.28 1207.01,945.978 1209.02,941.667 1211.04,937.348 1213.05,933.02 1215.06,928.685 1217.07,924.342 1219.08,919.991 1221.09,915.634 1223.1,911.268 1225.11,906.897 1227.12,902.518 1229.13,898.133 1231.14,893.741 1233.15,889.344 1235.16,884.941 1237.17,880.531 1239.18,876.117 1241.19,871.697 1243.2,867.273 1245.21,862.843 1247.22,858.409 1249.23,853.97 1251.24,849.528 1253.25,845.081 1255.26,840.63 1257.27,836.176 1259.28,831.719 1261.29,827.259 1263.3,822.795 1265.31,818.329 1267.32,813.861 1269.33,809.39 1271.34,804.917 1273.35,800.442 1275.36,795.966 1277.37,791.489 1279.38,787.01 1281.39,782.53 1283.4,778.049 1285.41,773.568 1287.42,769.087 1289.43,764.605 1291.44,760.124 1293.45,755.643 1295.46,751.162 1297.47,746.682 1299.48,742.203 1301.49,737.726 1303.5,733.249 1305.51,728.775 1307.52,724.302 1309.53,719.831 1311.54,715.363 1313.55,710.897 1315.56,706.433 1317.57,701.973 1319.58,697.516 1321.59,693.062 1323.61,688.611 1325.62,684.164 1327.63,679.722 1329.64,675.283 1331.65,670.849 1333.66,666.419 1335.67,661.995 1337.68,657.575 1339.69,653.16 1341.7,648.751 1343.71,644.348 1345.72,639.951 1347.73,635.559 1349.74,631.174 1351.75,626.795 1353.76,622.423 1355.77,618.058 1357.78,613.701 1359.79,609.35 1361.8,605.007 1363.81,600.672 1365.82,596.344 1367.83,592.025 1369.84,587.714 1371.85,583.411 1373.86,579.118 1375.87,574.833 1377.88,570.558 1379.89,566.291 1381.9,562.035 1383.91,557.788 1385.92,553.551 1387.93,549.324 1389.94,545.107 1391.95,540.901 1393.96,536.706 1395.97,532.521 1397.98,528.348 1399.99,524.186 1402,520.035 1404.01,515.896 1406.02,511.769 1408.03,507.654 1410.04,503.552 1412.05,499.461 1414.06,495.384 1416.07,491.319 1418.08,487.267 1420.09,483.228 1422.1,479.202 1424.11,475.19 1426.12,471.192 1428.13,467.207 1430.14,463.237 1432.15,459.281 1434.16,455.339 1436.17,451.412 1438.19,447.499 1440.2,443.601 1442.21,439.719 1444.22,435.852 1446.23,432 1448.24,428.163 1450.25,424.343 1452.26,420.538 1454.27,416.749 1456.28,412.977 1458.29,409.221 1460.3,405.482 1462.31,401.759 1464.32,398.053 1466.33,394.364 1468.34,390.692 1470.35,387.038 1472.36,383.401 1474.37,379.781 1476.38,376.18 1478.39,372.596 1480.4,369.031 1482.41,365.483 1484.42,361.954 1486.43,358.444 1488.44,354.952 1490.45,351.478 1492.46,348.024 1494.47,344.589 1496.48,341.173 1498.49,337.776 1500.5,334.399 1502.51,331.041 1504.52,327.703 1506.53,324.385 1508.54,321.086 1510.55,317.808 1512.56,314.55 1514.57,311.312 1516.58,308.095 1518.59,304.898 1520.6,301.722 1522.61,298.566 1524.62,295.432 1526.63,292.318 1528.64,289.226 1530.65,286.155 1532.66,283.105 1534.67,280.077 1536.68,277.07 1538.69,274.085 1540.7,271.121 1542.71,268.179 1544.72,265.26 1546.73,262.362 1548.74,259.486 1550.76,256.633 1552.77,253.802 1554.78,250.993 1556.79,248.207 1558.8,245.444 1560.81,242.703 1562.82,239.984 1564.83,237.289 1566.84,234.617 1568.85,231.967 1570.86,229.34 1572.87,226.737 1574.88,224.157 1576.89,221.6 1578.9,219.067 1580.91,216.556 1582.92,214.07 1584.93,211.607 1586.94,209.167 1588.95,206.751 1590.96,204.359 1592.97,201.991 1594.98,199.646 1596.99,197.325 1599,195.029 1601.01,192.756 1603.02,190.507 1605.03,188.283 1607.04,186.082 1609.05,183.906 1611.06,181.754 1613.07,179.626 1615.08,177.523 1617.09,175.444 1619.1,173.389 1621.11,171.359 1623.12,169.353 1625.13,167.371 1627.14,165.415 1629.15,163.482 1631.16,161.574 1633.17,159.691 1635.18,157.833 1637.19,155.999 1639.2,154.189 1641.21,152.405 1643.22,150.645 1645.23,148.91 1647.24,147.199 1649.25,145.513 1651.26,143.852 1653.27,142.216 1655.28,140.604 1657.29,139.018 1659.3,137.456 1661.31,135.918 1663.33,134.406 1665.34,132.918 1667.35,131.455 1669.36,130.017 1671.37,128.603 1673.38,127.215 1675.39,125.851 1677.4,124.511 1679.41,123.197 1681.42,121.907 1683.43,120.642 1685.44,119.401 1687.45,118.185 1689.46,116.994 1691.47,115.828 1693.48,114.686 1695.49,113.568 1697.5,112.475 1699.51,111.407 1701.52,110.363 1703.53,109.343 1705.54,108.348 1707.55,107.377 1709.56,106.431 1711.57,105.509 1713.58,104.611 1715.59,103.738 1717.6,102.888 1719.61,102.063 1721.62,101.262 1723.63,100.485 1725.64,99.7322 1727.65,99.0032 1729.66,98.2981 1731.67,97.6169 1733.68,96.9595 1735.69,96.3259 1737.7,95.716 1739.71,95.1298 1741.72,94.5672 1743.73,94.0281 1745.74,93.5125 1747.75,93.0204 1749.76,92.5516 1751.77,92.1061 1753.78,91.6838 1755.79,91.2847 1757.8,90.9088 1759.81,90.5558 1761.82,90.2258 1763.83,89.9188 1765.84,89.6345 1767.85,89.373 1769.86,89.1342 1771.87,88.918 1773.88,88.7243 1775.9,88.5531 1777.91,88.4042 1779.92,88.2776 1781.93,88.1733 1783.94,88.091 1785.95,88.0309 1787.96,87.9926 1789.97,87.9763 1791.98,87.9817 1793.99,88.0088 1796,88.0576 1798.01,88.1279 1800.02,88.2196 1802.03,88.3326 1804.04,88.4669 1806.05,88.6224 1808.06,88.7989 1810.07,88.9964 1812.08,89.2147 1814.09,89.4538 1816.1,89.7136 1818.11,89.994 1820.12,90.2949 1822.13,90.6161 1824.14,90.9576 1826.15,91.3192 1828.16,91.701 1830.17,92.1027 1832.18,92.5242 1834.19,92.9655 1836.2,93.4264 1838.21,93.9069 1840.22,94.4068 1842.23,94.926 1844.24,95.4645 1846.25,96.022 1848.26,96.5985 1850.27,97.1939 1852.28,97.8081 1854.29,98.4409 1856.3,99.0922 1858.31,99.7619 1860.32,100.45 1862.33,101.156 1864.34,101.881 1866.35,102.623 1868.36,103.383 1870.37,104.161 1872.38,104.956 1874.39,105.769 1876.4,106.599 1878.41,107.447 1880.42,108.311 1882.43,109.193 1884.44,110.091 1886.45,111.007 1888.47,111.939 1890.48,112.887 1892.49,113.852 1894.5,114.833 1896.51,115.83 1898.52,116.843 1900.53,117.872 1902.54,118.916 1904.55,119.977 1906.56,121.053 1908.57,122.144 1910.58,123.25 1912.59,124.372 1914.6,125.508 1916.61,126.66 1918.62,127.826 1920.63,129.006 1922.64,130.201 1924.65,131.411 1926.66,132.635 1928.67,133.872 1930.68,135.124 1932.69,136.39 1934.7,137.669 1936.71,138.961 1938.72,140.268 1940.73,141.587 1942.74,142.92 1944.75,144.265 1946.76,145.624 1948.77,146.995 1950.78,148.379 1952.79,149.775 1954.8,151.184 1956.81,152.605 1958.82,154.038 1960.83,155.482 1962.84,156.939 1964.85,158.408 1966.86,159.888 1968.87,161.379 1970.88,162.882 1972.89,164.396 1974.9,165.921 1976.91,167.456 1978.92,169.003 1980.93,170.56 1982.94,172.128 1984.95,173.706 1986.96,175.294 1988.97,176.892 1990.98,178.501 1992.99,180.119 1995,181.747 1997.01,183.384 1999.02,185.031 2001.04,186.687 2003.05,188.352 2005.06,190.026 2007.07,191.71 2009.08,193.402 2011.09,195.102 2013.1,196.811 2015.11,198.529 2017.12,200.254 2019.13,201.988 2021.14,203.73 2023.15,205.48 2025.16,207.237 2027.17,209.002 2029.18,210.775 2031.19,212.554 2033.2,214.341 2035.21,216.136 2037.22,217.937 2039.23,219.744 2041.24,221.559 2043.25,223.38 2045.26,225.208 2047.27,227.042 2049.28,228.882 2051.29,230.728 2053.3,232.58 2055.31,234.438 2057.32,236.301 2059.33,238.171 2061.34,240.045 2063.35,241.925 2065.36,243.81 2067.37,245.7 2069.38,247.595 2071.39,249.495 2073.4,251.4 2075.41,253.309 2077.42,255.223 2079.43,257.141 2081.44,259.064 2083.45,260.99 2085.46,262.92 2087.47,264.855 2089.48,266.793 2091.49,268.734 2093.5,270.68 2095.51,272.628 2097.52,274.58 2099.53,276.535 2101.54,278.493 2103.55,280.454 2105.56,282.418 2107.57,284.385 2109.58,286.354 2111.59,288.326 2113.61,290.3 2115.62,292.277 2117.63,294.255 2119.64,296.236 2121.65,298.219 2123.66,300.203 2125.67,302.189 2127.68,304.177 2129.69,306.167 2131.7,308.157 2133.71,310.15 2135.72,312.143 2137.73,314.137 2139.74,316.133 2141.75,318.129 2143.76,320.126 2145.77,322.124 2147.78,324.122 2149.79,326.121 2151.8,328.121 2153.81,330.12 2155.82,332.12 2157.83,334.12 2159.84,336.12 2161.85,338.12 2163.86,340.119 2165.87,342.119 2167.88,344.118 2169.89,346.116 2171.9,348.114 2173.91,350.112 2175.92,352.108 2177.93,354.104 2179.94,356.099 2181.95,358.093 2183.96,360.085 2185.97,362.077 2187.98,364.067 2189.99,366.056 2192,368.044 2194.01,370.03 2196.02,372.014 2198.03,373.996 2200.04,375.977 2202.05,377.956 2204.06,379.933 2206.07,381.908 2208.08,383.881 2210.09,385.852 2212.1,387.821 2214.11,389.787 2216.12,391.75 2218.13,393.712 2220.14,395.67 2222.15,397.626 2224.16,399.58 2226.17,401.53 2228.19,403.478 2230.2,405.422 2232.21,407.364 2234.22,409.303 2236.23,411.238 2238.24,413.17 2240.25,415.099 2242.26,417.025 2244.27,418.947 2246.28,420.866 2248.29,422.781 2250.3,424.693 2252.31,426.6 2254.32,428.505 2256.33,430.405 2258.34,432.301 2260.35,434.194 2262.36,436.082 2264.37,437.967 2266.38,439.847 2268.39,441.724 2270.4,443.596 2272.41,445.463 2274.42,447.327 2276.43,449.186 2278.44,451.04 2280.45,452.89 2282.46,454.736 2284.47,456.577 2286.48,458.413 2288.49,460.244 2290.5,462.071 2292.51,463.893 "></polyline>
<path clip-path="url(#clip780)" d="M295.053 198.898 L560.349 198.898 L560.349 95.2176 L295.053 95.2176  Z" fill="#ffffff" fill-rule="evenodd" fill-opacity="1"></path>
<polyline clip-path="url(#clip780)" style="stroke:#000000; stroke-linecap:round; stroke-linejoin:round; stroke-width:4; stroke-opacity:1; fill:none" points="295.053,198.898 560.349,198.898 560.349,95.2176 295.053,95.2176 295.053,198.898 "></polyline>
<polyline clip-path="url(#clip780)" style="stroke:#009af9; stroke-linecap:round; stroke-linejoin:round; stroke-width:4; stroke-opacity:1; fill:none" points="318.705,147.058 460.615,147.058 "></polyline>
<path clip-path="url(#clip780)" d="M498.11 166.745 Q496.304 171.375 494.591 172.787 Q492.878 174.199 490.008 174.199 L486.605 174.199 L486.605 170.634 L489.105 170.634 Q490.864 170.634 491.837 169.8 Q492.809 168.967 493.989 165.865 L494.753 163.921 L484.267 138.412 L488.781 138.412 L496.883 158.689 L504.985 138.412 L509.499 138.412 L498.11 166.745 Z" fill="#000000" fill-rule="evenodd" fill-opacity="1"></path><path clip-path="url(#clip780)" d="M516.79 160.402 L524.429 160.402 L524.429 134.037 L516.119 135.703 L516.119 131.444 L524.383 129.778 L529.059 129.778 L529.059 160.402 L536.697 160.402 L536.697 164.338 L516.79 164.338 L516.79 160.402 Z" fill="#000000" fill-rule="evenodd" fill-opacity="1"></path></svg>